<svg width="894" height="160" viewBox="0 0 894 160" fill="none" xmlns="http://www.w3.org/2000/svg">
<g filter="url(#filter0_d_0_1)">
<rect x="-108" width="998" height="152" rx="76" fill="white"/>
</g>
<path d="M171.797 58.2695C171.354 58.7904 170.885 59.2656 170.391 59.6953C169.896 60.112 169.382 60.4766 168.848 60.7891C167.936 61.3359 166.953 61.7396 165.898 62C164.844 62.2734 163.737 62.4036 162.578 62.3906C161.406 62.3776 160.326 62.2018 159.336 61.8633C158.359 61.5117 157.48 61.0299 156.699 60.418C155.918 59.819 155.234 59.1094 154.648 58.2891C154.062 57.4688 153.574 56.5768 153.184 55.6133C152.78 54.6628 152.474 53.6667 152.266 52.625C152.07 51.5703 151.966 50.5091 151.953 49.4414V46.1406C151.966 45.0859 152.057 44.0378 152.227 42.9961C152.409 41.9414 152.682 40.9323 153.047 39.9688C153.411 39.0052 153.867 38.1133 154.414 37.293C154.961 36.4596 155.618 35.737 156.387 35.125C157.142 34.526 158.001 34.0508 158.965 33.6992C159.928 33.3477 161.009 33.1719 162.207 33.1719C163.535 33.1719 164.759 33.3802 165.879 33.7969C166.999 34.2005 167.975 34.7799 168.809 35.5352C169.642 36.3034 170.312 37.2279 170.82 38.3086C171.328 39.3763 171.641 40.5742 171.758 41.9023H168.184C168.04 41.082 167.819 40.3268 167.52 39.6367C167.22 38.9336 166.829 38.3346 166.348 37.8398C165.853 37.3451 165.267 36.9609 164.59 36.6875C163.913 36.401 163.125 36.2578 162.227 36.2578C161.367 36.2578 160.605 36.4076 159.941 36.707C159.277 36.9935 158.698 37.3841 158.203 37.8789C157.708 38.3737 157.298 38.9531 156.973 39.6172C156.647 40.2682 156.38 40.9583 156.172 41.6875C155.964 42.4167 155.814 43.1589 155.723 43.9141C155.632 44.6693 155.586 45.3984 155.586 46.1016V49.4414C155.599 50.1576 155.658 50.8997 155.762 51.668C155.879 52.4232 156.055 53.1654 156.289 53.8945C156.523 54.6237 156.823 55.3138 157.188 55.9648C157.552 56.6159 157.995 57.1888 158.516 57.6836C159.023 58.1784 159.616 58.5755 160.293 58.875C160.97 59.1615 161.738 59.3112 162.598 59.3242C163.092 59.3372 163.607 59.3177 164.141 59.2656C164.688 59.2135 165.215 59.1094 165.723 58.9531C166.23 58.7969 166.706 58.5885 167.148 58.3281C167.591 58.0547 167.962 57.7031 168.262 57.2734L168.301 50.8867H162.52V47.8398H171.738L171.797 58.2695ZM191.27 40.4766C191.934 40.4766 192.624 40.5221 193.34 40.6133C194.069 40.7044 194.616 40.8281 194.98 40.9844L194.492 44.5195C193.789 44.3633 193.118 44.2526 192.48 44.1875C191.855 44.1094 191.198 44.0703 190.508 44.0703C189.622 44.0703 188.822 44.181 188.105 44.4023C187.389 44.6107 186.764 44.9232 186.23 45.3398C185.749 45.7044 185.326 46.1536 184.961 46.6875C184.609 47.2083 184.316 47.7943 184.082 48.4453V62H180.449V40.8672H183.887L184.043 43.6992L184.062 44.2266C184.922 43.0677 185.951 42.1562 187.148 41.4922C188.359 40.8151 189.733 40.4766 191.27 40.4766ZM210.781 62.3906C209.297 62.3906 207.93 62.1367 206.68 61.6289C205.443 61.1211 204.382 60.4115 203.496 59.5C202.611 58.5885 201.921 57.5078 201.426 56.2578C200.931 55.0078 200.684 53.6471 200.684 52.1758V51.3555C200.684 49.6497 200.957 48.1263 201.504 46.7852C202.051 45.431 202.78 44.2852 203.691 43.3477C204.59 42.4232 205.612 41.7135 206.758 41.2188C207.917 40.724 209.102 40.4766 210.312 40.4766C211.836 40.4766 213.164 40.7435 214.297 41.2773C215.443 41.7982 216.393 42.5208 217.148 43.4453C217.904 44.3828 218.464 45.4831 218.828 46.7461C219.206 48.0091 219.395 49.3763 219.395 50.8477V52.4688H204.297V52.6055C204.388 53.6341 204.59 54.5391 204.902 55.3203C205.228 56.1016 205.671 56.7917 206.23 57.3906C206.803 58.0286 207.493 58.5299 208.301 58.8945C209.108 59.2591 210 59.4414 210.977 59.4414C212.266 59.4414 213.411 59.181 214.414 58.6602C215.417 58.1393 216.25 57.4492 216.914 56.5898L219.121 58.3086C218.418 59.3763 217.363 60.3268 215.957 61.1602C214.564 61.9805 212.839 62.3906 210.781 62.3906ZM210.312 43.4453C209.583 43.4453 208.893 43.582 208.242 43.8555C207.591 44.1159 207.005 44.5 206.484 45.0078C205.964 45.5286 205.521 46.1667 205.156 46.9219C204.805 47.6641 204.557 48.5234 204.414 49.5H215.781V49.3242C215.781 48.6732 215.658 47.9766 215.41 47.2344C215.163 46.4792 214.818 45.8281 214.375 45.2812C213.932 44.7344 213.372 44.2917 212.695 43.9531C212.031 43.6146 211.237 43.4453 210.312 43.4453ZM234.805 62.3906C233.32 62.3906 231.953 62.1367 230.703 61.6289C229.466 61.1211 228.405 60.4115 227.52 59.5C226.634 58.5885 225.944 57.5078 225.449 56.2578C224.954 55.0078 224.707 53.6471 224.707 52.1758V51.3555C224.707 49.6497 224.98 48.1263 225.527 46.7852C226.074 45.431 226.803 44.2852 227.715 43.3477C228.613 42.4232 229.635 41.7135 230.781 41.2188C231.94 40.724 233.125 40.4766 234.336 40.4766C235.859 40.4766 237.188 40.7435 238.32 41.2773C239.466 41.7982 240.417 42.5208 241.172 43.4453C241.927 44.3828 242.487 45.4831 242.852 46.7461C243.229 48.0091 243.418 49.3763 243.418 50.8477V52.4688H228.32V52.6055C228.411 53.6341 228.613 54.5391 228.926 55.3203C229.251 56.1016 229.694 56.7917 230.254 57.3906C230.827 58.0286 231.517 58.5299 232.324 58.8945C233.132 59.2591 234.023 59.4414 235 59.4414C236.289 59.4414 237.435 59.181 238.438 58.6602C239.44 58.1393 240.273 57.4492 240.938 56.5898L243.145 58.3086C242.441 59.3763 241.387 60.3268 239.98 61.1602C238.587 61.9805 236.862 62.3906 234.805 62.3906ZM234.336 43.4453C233.607 43.4453 232.917 43.582 232.266 43.8555C231.615 44.1159 231.029 44.5 230.508 45.0078C229.987 45.5286 229.544 46.1667 229.18 46.9219C228.828 47.6641 228.581 48.5234 228.438 49.5H239.805V49.3242C239.805 48.6732 239.681 47.9766 239.434 47.2344C239.186 46.4792 238.841 45.8281 238.398 45.2812C237.956 44.7344 237.396 44.2917 236.719 43.9531C236.055 43.6146 235.26 43.4453 234.336 43.4453ZM258.047 35.75V40.8672H266.094V43.6602H258.047V55.1445C258.047 55.9648 258.151 56.6419 258.359 57.1758C258.568 57.7096 258.854 58.1328 259.219 58.4453C259.583 58.7708 260 58.9987 260.469 59.1289C260.951 59.2591 261.458 59.3242 261.992 59.3242C262.383 59.3242 262.786 59.3047 263.203 59.2656C263.62 59.2135 264.03 59.1549 264.434 59.0898C264.824 59.0247 265.189 58.9596 265.527 58.8945C265.879 58.8164 266.165 58.7513 266.387 58.6992L266.895 61.2578C266.595 61.4401 266.23 61.6029 265.801 61.7461C265.371 61.8763 264.902 61.987 264.395 62.0781C263.887 62.1823 263.346 62.2604 262.773 62.3125C262.214 62.3646 261.654 62.3906 261.094 62.3906C260.156 62.3906 259.277 62.2604 258.457 62C257.65 61.7266 256.947 61.2969 256.348 60.7109C255.749 60.138 255.273 59.3958 254.922 58.4844C254.583 57.5599 254.414 56.4466 254.414 55.1445V43.6602H248.867V40.8672H254.414V35.75H258.047ZM274.082 40.8672H284.883V58.875H291.777V62H274.082V58.875H281.27V44.0117H274.082V40.8672ZM280.801 35.3203C280.801 35.0078 280.846 34.7148 280.938 34.4414C281.042 34.168 281.198 33.9336 281.406 33.7383C281.576 33.569 281.79 33.4388 282.051 33.3477C282.324 33.2435 282.63 33.1914 282.969 33.1914C283.307 33.1914 283.607 33.2435 283.867 33.3477C284.128 33.4388 284.342 33.569 284.512 33.7383C284.72 33.9206 284.876 34.1484 284.98 34.4219C285.085 34.6953 285.137 34.9948 285.137 35.3203C285.137 35.9062 284.954 36.3945 284.59 36.7852C284.225 37.1758 283.685 37.3711 282.969 37.3711C282.24 37.3711 281.693 37.1758 281.328 36.7852C280.977 36.3945 280.801 35.9062 280.801 35.3203ZM297.539 62V40.8672H300.781L301.035 43.9922C301.348 43.5495 301.686 43.1458 302.051 42.7812C302.428 42.4036 302.826 42.0781 303.242 41.8047C303.867 41.388 304.544 41.069 305.273 40.8477C306.016 40.6133 306.797 40.4896 307.617 40.4766C308.724 40.4766 309.727 40.6328 310.625 40.9453C311.536 41.2578 312.311 41.7461 312.949 42.4102C313.587 43.0742 314.076 43.9206 314.414 44.9492C314.766 45.9648 314.941 47.1758 314.941 48.582V62H311.328V48.6602C311.328 47.7227 311.224 46.9284 311.016 46.2773C310.807 45.6263 310.501 45.099 310.098 44.6953C309.681 44.2917 309.173 43.9987 308.574 43.8164C307.988 43.6341 307.311 43.543 306.543 43.543C305.879 43.543 305.26 43.6406 304.688 43.8359C304.115 44.0182 303.587 44.2721 303.105 44.5977C302.715 44.8841 302.35 45.2161 302.012 45.5938C301.686 45.9714 301.4 46.388 301.152 46.8438V62H297.539ZM320.898 51.2578C320.898 49.6823 321.087 48.237 321.465 46.9219C321.855 45.5938 322.415 44.4544 323.145 43.5039C323.874 42.5534 324.759 41.8112 325.801 41.2773C326.842 40.7435 328.021 40.4766 329.336 40.4766C330.182 40.4766 330.957 40.5742 331.66 40.7695C332.376 40.9648 333.021 41.2513 333.594 41.6289C333.906 41.8242 334.199 42.0521 334.473 42.3125C334.759 42.5729 335.026 42.8594 335.273 43.1719L335.449 40.8672H338.73V61.5508C338.73 62.944 338.509 64.181 338.066 65.2617C337.637 66.3424 337.031 67.2604 336.25 68.0156C335.456 68.7708 334.512 69.3438 333.418 69.7344C332.324 70.125 331.113 70.3203 329.785 70.3203C329.238 70.3203 328.613 70.2552 327.91 70.125C327.207 70.0078 326.497 69.806 325.781 69.5195C325.052 69.2461 324.349 68.875 323.672 68.4062C323.008 67.9375 322.435 67.3581 321.953 66.668L323.828 64.5C324.271 65.0339 324.727 65.4831 325.195 65.8477C325.664 66.2253 326.139 66.5247 326.621 66.7461C327.103 66.9674 327.585 67.1237 328.066 67.2148C328.548 67.319 329.03 67.3711 329.512 67.3711C330.371 67.3711 331.146 67.2474 331.836 67C332.526 66.7526 333.118 66.388 333.613 65.9062C334.095 65.4375 334.466 64.8516 334.727 64.1484C334.987 63.4453 335.117 62.638 335.117 61.7266V59.9102C334.844 60.2227 334.551 60.5091 334.238 60.7695C333.939 61.0299 333.613 61.2578 333.262 61.4531C332.715 61.7526 332.109 61.9805 331.445 62.1367C330.781 62.306 330.065 62.3906 329.297 62.3906C328.008 62.3906 326.842 62.1172 325.801 61.5703C324.759 61.0234 323.88 60.2682 323.164 59.3047C322.435 58.3411 321.875 57.2083 321.484 55.9062C321.094 54.5911 320.898 53.1784 320.898 51.668V51.2578ZM324.512 51.668C324.512 52.6966 324.616 53.6732 324.824 54.5977C325.046 55.5221 325.391 56.3359 325.859 57.0391C326.315 57.7422 326.901 58.3021 327.617 58.7188C328.333 59.1224 329.193 59.3242 330.195 59.3242C330.82 59.3242 331.38 59.2526 331.875 59.1094C332.383 58.9531 332.839 58.7383 333.242 58.4648C333.633 58.1914 333.984 57.8659 334.297 57.4883C334.609 57.1107 334.883 56.694 335.117 56.2383V46.5508C334.883 46.1081 334.609 45.7044 334.297 45.3398C333.984 44.9753 333.626 44.6562 333.223 44.3828C332.819 44.1224 332.37 43.9206 331.875 43.7773C331.38 43.6211 330.833 43.543 330.234 43.543C329.219 43.543 328.346 43.7513 327.617 44.168C326.901 44.5846 326.315 45.1445 325.859 45.8477C325.391 46.5638 325.046 47.3906 324.824 48.3281C324.616 49.2526 324.512 50.2292 324.512 51.2578V51.668ZM359.629 56.3945C359.629 55.9648 359.544 55.5807 359.375 55.2422C359.206 54.8906 358.919 54.5716 358.516 54.2852C358.112 53.9987 357.578 53.7383 356.914 53.5039C356.25 53.2565 355.423 53.0352 354.434 52.8398C353.223 52.5924 352.116 52.293 351.113 51.9414C350.124 51.5898 349.277 51.1667 348.574 50.6719C347.858 50.1901 347.305 49.6237 346.914 48.9727C346.523 48.3086 346.328 47.5404 346.328 46.668C346.328 45.8086 346.53 45.0078 346.934 44.2656C347.337 43.5104 347.904 42.8529 348.633 42.293C349.362 41.7331 350.228 41.2904 351.23 40.9648C352.246 40.6393 353.359 40.4766 354.57 40.4766C355.872 40.4766 357.044 40.6458 358.086 40.9844C359.128 41.3229 360.013 41.7917 360.742 42.3906C361.471 42.9896 362.031 43.6927 362.422 44.5C362.826 45.2943 363.027 46.1536 363.027 47.0781H359.414C359.414 46.6224 359.297 46.1797 359.062 45.75C358.828 45.3073 358.503 44.9167 358.086 44.5781C357.669 44.2396 357.161 43.9661 356.562 43.7578C355.977 43.5495 355.312 43.4453 354.57 43.4453C353.802 43.4453 353.125 43.5299 352.539 43.6992C351.966 43.8685 351.491 44.0964 351.113 44.3828C350.723 44.6693 350.43 45.0013 350.234 45.3789C350.039 45.7565 349.941 46.1471 349.941 46.5508C349.941 46.9674 350.02 47.3385 350.176 47.6641C350.332 47.9896 350.605 48.2826 350.996 48.543C351.374 48.8034 351.882 49.0378 352.52 49.2461C353.171 49.4544 353.991 49.6562 354.98 49.8516C356.283 50.125 357.448 50.444 358.477 50.8086C359.505 51.1602 360.371 51.5833 361.074 52.0781C361.777 52.5859 362.311 53.1719 362.676 53.8359C363.053 54.5 363.242 55.2682 363.242 56.1406C363.242 57.0781 363.027 57.931 362.598 58.6992C362.181 59.4674 361.595 60.125 360.84 60.6719C360.085 61.2188 359.18 61.6419 358.125 61.9414C357.07 62.2409 355.918 62.3906 354.668 62.3906C353.236 62.3906 351.96 62.2018 350.84 61.8242C349.72 61.4336 348.776 60.9193 348.008 60.2812C347.227 59.6562 346.628 58.9271 346.211 58.0938C345.807 57.2604 345.605 56.3945 345.605 55.4961H349.219C349.271 56.2383 349.466 56.8633 349.805 57.3711C350.156 57.8789 350.592 58.2891 351.113 58.6016C351.621 58.9141 352.188 59.1354 352.812 59.2656C353.438 59.3958 354.056 59.4609 354.668 59.4609C355.632 59.4609 356.471 59.3503 357.188 59.1289C357.904 58.8945 358.464 58.5755 358.867 58.1719C359.115 57.9245 359.303 57.651 359.434 57.3516C359.564 57.0521 359.629 56.7331 359.629 56.3945ZM378.77 61.1602C378.77 62.4622 378.464 63.7904 377.852 65.1445C377.24 66.4987 376.413 67.638 375.371 68.5625L373.125 67.332C373.75 66.4206 374.193 65.4505 374.453 64.4219C374.714 63.3932 374.844 62.3255 374.844 61.2188V57.7227H378.77V61.1602ZM436.074 53.4453C435.905 54.7604 435.566 55.9714 435.059 57.0781C434.551 58.1719 433.893 59.1094 433.086 59.8906C432.266 60.6849 431.296 61.3034 430.176 61.7461C429.069 62.1758 427.832 62.3906 426.465 62.3906C425.293 62.3906 424.225 62.2279 423.262 61.9023C422.311 61.5638 421.465 61.1016 420.723 60.5156C419.967 59.9297 419.316 59.2396 418.77 58.4453C418.236 57.651 417.793 56.7852 417.441 55.8477C417.077 54.9102 416.803 53.9271 416.621 52.8984C416.452 51.8698 416.361 50.8281 416.348 49.7734V45.8086C416.361 44.7539 416.452 43.7122 416.621 42.6836C416.803 41.6549 417.077 40.6719 417.441 39.7344C417.793 38.7969 418.236 37.931 418.77 37.1367C419.316 36.3294 419.967 35.6328 420.723 35.0469C421.465 34.4609 422.311 34.0052 423.262 33.6797C424.212 33.3411 425.28 33.1719 426.465 33.1719C427.884 33.1719 429.154 33.3932 430.273 33.8359C431.393 34.2656 432.357 34.8776 433.164 35.6719C433.971 36.4792 434.616 37.4427 435.098 38.5625C435.592 39.6823 435.918 40.9193 436.074 42.2734H432.461C432.344 41.4141 432.142 40.6133 431.855 39.8711C431.569 39.1289 431.185 38.4779 430.703 37.918C430.221 37.3581 429.629 36.9219 428.926 36.6094C428.236 36.2839 427.415 36.1211 426.465 36.1211C425.605 36.1211 424.844 36.2643 424.18 36.5508C423.529 36.8242 422.969 37.2018 422.5 37.6836C422.018 38.1654 421.615 38.7253 421.289 39.3633C420.977 40.0013 420.723 40.6784 420.527 41.3945C420.332 42.1107 420.189 42.8464 420.098 43.6016C420.02 44.3438 419.98 45.0664 419.98 45.7695V49.7734C419.98 50.4766 420.02 51.2057 420.098 51.9609C420.189 52.7031 420.332 53.4323 420.527 54.1484C420.723 54.8776 420.977 55.5612 421.289 56.1992C421.602 56.8372 421.999 57.3971 422.48 57.8789C422.962 58.3737 423.529 58.7643 424.18 59.0508C424.831 59.3242 425.592 59.4609 426.465 59.4609C427.415 59.4609 428.236 59.3112 428.926 59.0117C429.629 58.7122 430.221 58.2891 430.703 57.7422C431.185 57.2083 431.569 56.5768 431.855 55.8477C432.142 55.1055 432.344 54.3047 432.461 53.4453H436.074ZM455.566 62C455.423 61.7266 455.306 61.388 455.215 60.9844C455.137 60.5677 455.078 60.138 455.039 59.6953C454.674 60.0599 454.264 60.4049 453.809 60.7305C453.366 61.056 452.878 61.3424 452.344 61.5898C451.797 61.8372 451.217 62.0326 450.605 62.1758C449.993 62.319 449.342 62.3906 448.652 62.3906C447.533 62.3906 446.517 62.2279 445.605 61.9023C444.707 61.5768 443.945 61.1341 443.32 60.5742C442.682 60.0273 442.188 59.3763 441.836 58.6211C441.497 57.8529 441.328 57.026 441.328 56.1406C441.328 54.9818 441.556 53.9661 442.012 53.0938C442.48 52.2214 443.138 51.4922 443.984 50.9062C444.831 50.3333 445.846 49.9036 447.031 49.6172C448.229 49.3307 449.564 49.1875 451.035 49.1875H454.98V47.5273C454.98 46.8893 454.863 46.3164 454.629 45.8086C454.395 45.3008 454.062 44.8646 453.633 44.5C453.203 44.1484 452.676 43.875 452.051 43.6797C451.439 43.4844 450.749 43.3867 449.98 43.3867C449.264 43.3867 448.62 43.4779 448.047 43.6602C447.487 43.8424 447.012 44.0833 446.621 44.3828C446.23 44.6823 445.924 45.0404 445.703 45.457C445.495 45.8607 445.391 46.2839 445.391 46.7266H441.758C441.771 45.9583 441.966 45.2031 442.344 44.4609C442.734 43.7188 443.294 43.0482 444.023 42.4492C444.74 41.8633 445.612 41.388 446.641 41.0234C447.682 40.6589 448.861 40.4766 450.176 40.4766C451.374 40.4766 452.487 40.6263 453.516 40.9258C454.544 41.2122 455.436 41.6484 456.191 42.2344C456.934 42.8333 457.52 43.5755 457.949 44.4609C458.379 45.3464 458.594 46.3815 458.594 47.5664V57.3906C458.594 58.0938 458.659 58.8424 458.789 59.6367C458.919 60.418 459.102 61.1016 459.336 61.6875V62H455.566ZM449.18 59.2461C449.883 59.2461 450.54 59.1549 451.152 58.9727C451.764 58.7904 452.324 58.5495 452.832 58.25C453.327 57.9505 453.757 57.612 454.121 57.2344C454.486 56.8438 454.772 56.4401 454.98 56.0234V51.7461H451.621C450.371 51.7461 449.277 51.8568 448.34 52.0781C447.415 52.2865 446.68 52.612 446.133 53.0547C445.742 53.3672 445.443 53.7383 445.234 54.168C445.039 54.5977 444.941 55.0859 444.941 55.6328C444.941 56.1536 445.026 56.6354 445.195 57.0781C445.378 57.5208 445.645 57.8984 445.996 58.2109C446.348 58.5365 446.79 58.7904 447.324 58.9727C447.858 59.1549 448.477 59.2461 449.18 59.2461ZM465.02 51.2578C465.02 49.6823 465.215 48.237 465.605 46.9219C466.009 45.5938 466.582 44.4544 467.324 43.5039C468.053 42.5534 468.939 41.8112 469.98 41.2773C471.022 40.7435 472.188 40.4766 473.477 40.4766C474.74 40.4766 475.84 40.6914 476.777 41.1211C477.728 41.5378 478.548 42.1497 479.238 42.957V32H482.852V62H479.531L479.375 59.7734C478.672 60.6328 477.832 61.2839 476.855 61.7266C475.879 62.1693 474.74 62.3906 473.438 62.3906C472.161 62.3906 471.003 62.1172 469.961 61.5703C468.932 61.0234 468.053 60.2682 467.324 59.3047C466.595 58.3411 466.029 57.2083 465.625 55.9062C465.221 54.5911 465.02 53.1784 465.02 51.668V51.2578ZM468.633 51.668C468.633 52.6966 468.743 53.6732 468.965 54.5977C469.186 55.5221 469.531 56.3359 470 57.0391C470.456 57.7422 471.042 58.3021 471.758 58.7188C472.474 59.1224 473.333 59.3242 474.336 59.3242C475.547 59.3242 476.549 59.0508 477.344 58.5039C478.138 57.957 478.77 57.2214 479.238 56.2969V46.4922C478.77 45.6328 478.138 44.9297 477.344 44.3828C476.549 43.8229 475.56 43.543 474.375 43.543C473.359 43.543 472.487 43.7513 471.758 44.168C471.042 44.5846 470.456 45.1445 470 45.8477C469.531 46.5638 469.186 47.3906 468.965 48.3281C468.743 49.2526 468.633 50.2292 468.633 51.2578V51.668ZM499.062 62.3906C497.578 62.3906 496.211 62.1367 494.961 61.6289C493.724 61.1211 492.663 60.4115 491.777 59.5C490.892 58.5885 490.202 57.5078 489.707 56.2578C489.212 55.0078 488.965 53.6471 488.965 52.1758V51.3555C488.965 49.6497 489.238 48.1263 489.785 46.7852C490.332 45.431 491.061 44.2852 491.973 43.3477C492.871 42.4232 493.893 41.7135 495.039 41.2188C496.198 40.724 497.383 40.4766 498.594 40.4766C500.117 40.4766 501.445 40.7435 502.578 41.2773C503.724 41.7982 504.674 42.5208 505.43 43.4453C506.185 44.3828 506.745 45.4831 507.109 46.7461C507.487 48.0091 507.676 49.3763 507.676 50.8477V52.4688H492.578V52.6055C492.669 53.6341 492.871 54.5391 493.184 55.3203C493.509 56.1016 493.952 56.7917 494.512 57.3906C495.085 58.0286 495.775 58.5299 496.582 58.8945C497.389 59.2591 498.281 59.4414 499.258 59.4414C500.547 59.4414 501.693 59.181 502.695 58.6602C503.698 58.1393 504.531 57.4492 505.195 56.5898L507.402 58.3086C506.699 59.3763 505.645 60.3268 504.238 61.1602C502.845 61.9805 501.12 62.3906 499.062 62.3906ZM498.594 43.4453C497.865 43.4453 497.174 43.582 496.523 43.8555C495.872 44.1159 495.286 44.5 494.766 45.0078C494.245 45.5286 493.802 46.1667 493.438 46.9219C493.086 47.6641 492.839 48.5234 492.695 49.5H504.062V49.3242C504.062 48.6732 503.939 47.9766 503.691 47.2344C503.444 46.4792 503.099 45.8281 502.656 45.2812C502.214 44.7344 501.654 44.2917 500.977 43.9531C500.312 43.6146 499.518 43.4453 498.594 43.4453ZM522.305 35.75V40.8672H530.352V43.6602H522.305V55.1445C522.305 55.9648 522.409 56.6419 522.617 57.1758C522.826 57.7096 523.112 58.1328 523.477 58.4453C523.841 58.7708 524.258 58.9987 524.727 59.1289C525.208 59.2591 525.716 59.3242 526.25 59.3242C526.641 59.3242 527.044 59.3047 527.461 59.2656C527.878 59.2135 528.288 59.1549 528.691 59.0898C529.082 59.0247 529.447 58.9596 529.785 58.8945C530.137 58.8164 530.423 58.7513 530.645 58.6992L531.152 61.2578C530.853 61.4401 530.488 61.6029 530.059 61.7461C529.629 61.8763 529.16 61.987 528.652 62.0781C528.145 62.1823 527.604 62.2604 527.031 62.3125C526.471 62.3646 525.911 62.3906 525.352 62.3906C524.414 62.3906 523.535 62.2604 522.715 62C521.908 61.7266 521.204 61.2969 520.605 60.7109C520.007 60.138 519.531 59.3958 519.18 58.4844C518.841 57.5599 518.672 56.4466 518.672 55.1445V43.6602H513.125V40.8672H518.672V35.75H522.305ZM544.062 59.6562C544.062 58.888 544.297 58.2305 544.766 57.6836C545.234 57.1367 545.944 56.8633 546.895 56.8633C547.832 56.8633 548.542 57.1367 549.023 57.6836C549.518 58.2174 549.766 58.875 549.766 59.6562C549.766 60.4245 549.518 61.069 549.023 61.5898C548.529 62.1107 547.819 62.3711 546.895 62.3711C545.957 62.3711 545.247 62.1107 544.766 61.5898C544.297 61.056 544.062 60.4115 544.062 59.6562ZM585.82 33.5625H603.008V36.707H596.191V58.875H603.008V62H585.82V58.875H592.48V36.707H585.82V33.5625ZM620.82 34.4414C620.82 35.0534 620.742 35.6979 620.586 36.375C620.443 37.0521 620.228 37.7161 619.941 38.3672C619.642 39.0312 619.284 39.6628 618.867 40.2617C618.451 40.8607 617.969 41.3945 617.422 41.8633L615.449 40.457C616.061 39.5326 616.517 38.5885 616.816 37.625C617.129 36.6615 617.285 35.6198 617.285 34.5V31.5703H620.82V34.4414ZM635.527 40.8672L635.625 42.8594C636.055 42.1172 636.615 41.5378 637.305 41.1211C638.008 40.7044 638.854 40.4896 639.844 40.4766C640.404 40.4766 640.905 40.5417 641.348 40.6719C641.803 40.7891 642.201 40.9648 642.539 41.1992C642.786 41.3815 643.008 41.6029 643.203 41.8633C643.411 42.1237 643.587 42.4167 643.73 42.7422C643.913 42.4427 644.128 42.1628 644.375 41.9023C644.622 41.6419 644.889 41.4141 645.176 41.2188C645.54 40.9974 645.944 40.8216 646.387 40.6914C646.842 40.5612 647.337 40.4896 647.871 40.4766C648.6 40.4766 649.258 40.5872 649.844 40.8086C650.43 41.0169 650.924 41.3294 651.328 41.7461C651.771 42.2148 652.109 42.8268 652.344 43.582C652.578 44.3242 652.695 45.2031 652.695 46.2188V62H649.258V46.1797C649.258 45.737 649.206 45.3464 649.102 45.0078C648.997 44.6693 648.848 44.3893 648.652 44.168C648.444 43.9596 648.184 43.8034 647.871 43.6992C647.572 43.5951 647.22 43.543 646.816 43.543C646.387 43.543 646.016 43.6016 645.703 43.7188C645.391 43.8359 645.13 43.9922 644.922 44.1875C644.714 44.3958 644.551 44.6367 644.434 44.9102C644.316 45.1706 644.238 45.4635 644.199 45.7891C644.199 45.8542 644.199 45.9193 644.199 45.9844C644.199 46.0365 644.199 46.1016 644.199 46.1797V62H640.762V46.1602C640.762 45.7174 640.71 45.3268 640.605 44.9883C640.514 44.6497 640.365 44.3698 640.156 44.1484C639.961 43.9401 639.714 43.7904 639.414 43.6992C639.128 43.5951 638.789 43.543 638.398 43.543C637.969 43.543 637.591 43.5951 637.266 43.6992C636.953 43.7904 636.686 43.9271 636.465 44.1094C636.296 44.2526 636.146 44.4154 636.016 44.5977C635.898 44.7799 635.801 44.9753 635.723 45.1836V62H632.285V40.8672H635.527ZM699.727 62H696.055L685.02 40.75L684.961 62H681.309V33.5625H684.98L696.016 54.7734L696.074 33.5625H699.727V62ZM724.434 49.4219C724.421 50.4375 724.329 51.4661 724.16 52.5078C724.004 53.5365 723.757 54.5326 723.418 55.4961C723.079 56.4596 722.643 57.3581 722.109 58.1914C721.589 59.0247 720.964 59.7539 720.234 60.3789C719.505 61.0039 718.665 61.4987 717.715 61.8633C716.777 62.2148 715.723 62.3906 714.551 62.3906C713.379 62.3906 712.318 62.2148 711.367 61.8633C710.43 61.4987 709.596 61.0039 708.867 60.3789C708.138 59.7539 707.507 59.0247 706.973 58.1914C706.439 57.3451 706.003 56.4401 705.664 55.4766C705.312 54.513 705.052 53.5169 704.883 52.4883C704.714 51.4596 704.622 50.4375 704.609 49.4219V46.1797C704.622 45.1641 704.707 44.1419 704.863 43.1133C705.033 42.0716 705.293 41.069 705.645 40.1055C705.983 39.1419 706.413 38.2435 706.934 37.4102C707.467 36.5638 708.099 35.8216 708.828 35.1836C709.557 34.5586 710.391 34.0703 711.328 33.7188C712.279 33.3542 713.34 33.1719 714.512 33.1719C715.684 33.1719 716.745 33.3542 717.695 33.7188C718.646 34.0703 719.486 34.5586 720.215 35.1836C720.944 35.8086 721.569 36.5443 722.09 37.3906C722.624 38.224 723.066 39.1224 723.418 40.0859C723.757 41.0495 724.004 42.0521 724.16 43.0938C724.329 44.1354 724.421 45.1641 724.434 46.1797V49.4219ZM720.859 46.1406C720.846 45.4635 720.801 44.7604 720.723 44.0312C720.645 43.2891 720.514 42.5534 720.332 41.8242C720.137 41.1081 719.883 40.4245 719.57 39.7734C719.258 39.1094 718.867 38.5234 718.398 38.0156C717.93 37.5208 717.376 37.1302 716.738 36.8438C716.1 36.5443 715.358 36.3945 714.512 36.3945C713.678 36.3945 712.943 36.5443 712.305 36.8438C711.667 37.1432 711.113 37.5404 710.645 38.0352C710.176 38.543 709.785 39.1289 709.473 39.793C709.16 40.444 708.913 41.1276 708.73 41.8438C708.535 42.5729 708.392 43.3086 708.301 44.0508C708.223 44.7799 708.177 45.4766 708.164 46.1406V49.4219C708.177 50.0859 708.223 50.7891 708.301 51.5312C708.392 52.2734 708.535 53.0026 708.73 53.7188C708.926 54.4479 709.18 55.1445 709.492 55.8086C709.805 56.4727 710.195 57.0521 710.664 57.5469C711.133 58.0547 711.686 58.4583 712.324 58.7578C712.962 59.0573 713.704 59.207 714.551 59.207C715.397 59.207 716.139 59.0573 716.777 58.7578C717.428 58.4583 717.988 58.0547 718.457 57.5469C718.913 57.0521 719.29 56.4792 719.59 55.8281C719.902 55.1641 720.156 54.4674 720.352 53.7383C720.534 53.0221 720.658 52.293 720.723 51.5508C720.801 50.8086 720.846 50.099 720.859 49.4219V46.1406ZM736.934 62L727.949 33.5625H731.816L738.066 54.793L738.477 56.1797L738.906 54.7539L745.195 33.5625H749.043L740.078 62H736.934ZM767.559 54.6367H758.066L755.781 62H752.168L761.348 33.5625H764.375L773.398 62H769.805L767.559 54.6367ZM759.043 51.4922H766.602L762.852 39.1484L759.043 51.4922ZM787.168 61.1602C787.168 62.4622 786.862 63.7904 786.25 65.1445C785.638 66.4987 784.811 67.638 783.77 68.5625L781.523 67.332C782.148 66.4206 782.591 65.4505 782.852 64.4219C783.112 63.3932 783.242 62.3255 783.242 61.2188V57.7227H787.168V61.1602ZM155.098 123.535C154.759 123.535 154.362 123.496 153.906 123.418C153.451 123.34 153.105 123.275 152.871 123.223L153.457 120.273C153.783 120.299 154.102 120.319 154.414 120.332C154.74 120.358 154.993 120.371 155.176 120.371C155.671 120.371 156.12 120.234 156.523 119.961C156.94 119.688 157.311 119.362 157.637 118.984C157.949 118.607 158.216 118.216 158.438 117.812C158.672 117.409 158.854 117.077 158.984 116.816L160.43 114.004L151.328 93.8672H155.371L161.172 107.5L162.109 110.059L163.105 107.578L168.555 93.8672H172.598L161.875 118.262C161.628 118.809 161.309 119.388 160.918 120C160.54 120.612 160.078 121.178 159.531 121.699C158.984 122.22 158.346 122.656 157.617 123.008C156.888 123.359 156.048 123.535 155.098 123.535ZM176.406 104.238C176.406 102.715 176.628 101.302 177.07 100C177.513 98.6849 178.151 97.5456 178.984 96.582C179.805 95.6185 180.807 94.8633 181.992 94.3164C183.177 93.7565 184.512 93.4766 185.996 93.4766C187.493 93.4766 188.835 93.7565 190.02 94.3164C191.217 94.8633 192.233 95.6185 193.066 96.582C193.887 97.5456 194.518 98.6849 194.961 100C195.404 101.302 195.625 102.715 195.625 104.238V104.668C195.625 106.191 195.404 107.604 194.961 108.906C194.518 110.208 193.887 111.341 193.066 112.305C192.233 113.268 191.224 114.023 190.039 114.57C188.854 115.117 187.52 115.391 186.035 115.391C184.538 115.391 183.19 115.117 181.992 114.57C180.807 114.023 179.805 113.268 178.984 112.305C178.151 111.341 177.513 110.208 177.07 108.906C176.628 107.604 176.406 106.191 176.406 104.668V104.238ZM180.02 104.668C180.02 105.71 180.143 106.706 180.391 107.656C180.638 108.594 181.016 109.421 181.523 110.137C182.018 110.853 182.643 111.419 183.398 111.836C184.154 112.253 185.033 112.461 186.035 112.461C187.025 112.461 187.891 112.253 188.633 111.836C189.388 111.419 190.02 110.853 190.527 110.137C191.022 109.421 191.393 108.594 191.641 107.656C191.888 106.706 192.012 105.71 192.012 104.668V104.238C192.012 103.21 191.882 102.227 191.621 101.289C191.374 100.339 191.003 99.5052 190.508 98.7891C190 98.0729 189.368 97.5065 188.613 97.0898C187.871 96.6602 186.999 96.4453 185.996 96.4453C184.993 96.4453 184.121 96.6602 183.379 97.0898C182.637 97.5065 182.018 98.0729 181.523 98.7891C181.016 99.5052 180.638 100.339 180.391 101.289C180.143 102.227 180.02 103.21 180.02 104.238V104.668ZM215.371 115L215.156 112.09C214.453 113.132 213.574 113.945 212.52 114.531C211.465 115.104 210.247 115.391 208.867 115.391C207.76 115.391 206.758 115.221 205.859 114.883C204.961 114.531 204.193 113.991 203.555 113.262C202.917 112.533 202.422 111.608 202.07 110.488C201.732 109.355 201.562 108.001 201.562 106.426V93.8672H205.176V106.465C205.176 107.611 205.267 108.561 205.449 109.316C205.632 110.072 205.905 110.671 206.27 111.113C206.634 111.569 207.077 111.888 207.598 112.07C208.132 112.253 208.743 112.344 209.434 112.344C210.241 112.344 210.964 112.253 211.602 112.07C212.24 111.875 212.793 111.608 213.262 111.27C213.652 110.996 213.991 110.671 214.277 110.293C214.577 109.902 214.824 109.479 215.02 109.023V93.8672H218.652V115H215.371ZM239.316 93.4766C239.98 93.4766 240.671 93.5221 241.387 93.6133C242.116 93.7044 242.663 93.8281 243.027 93.9844L242.539 97.5195C241.836 97.3633 241.165 97.2526 240.527 97.1875C239.902 97.1094 239.245 97.0703 238.555 97.0703C237.669 97.0703 236.868 97.181 236.152 97.4023C235.436 97.6107 234.811 97.9232 234.277 98.3398C233.796 98.7044 233.372 99.1536 233.008 99.6875C232.656 100.208 232.363 100.794 232.129 101.445V115H228.496V93.8672H231.934L232.09 96.6992L232.109 97.2266C232.969 96.0677 233.997 95.1562 235.195 94.4922C236.406 93.8151 237.78 93.4766 239.316 93.4766ZM289.16 101.855H277.285V111.934H291.133V115H273.672V86.5625H290.957V89.6484H277.285V98.7891H289.16V101.855ZM306.543 112.461C307.194 112.461 307.826 112.357 308.438 112.148C309.062 111.94 309.616 111.647 310.098 111.27C310.579 110.905 310.964 110.475 311.25 109.98C311.549 109.473 311.706 108.926 311.719 108.34H315.137C315.124 109.277 314.876 110.176 314.395 111.035C313.926 111.882 313.294 112.624 312.5 113.262C311.706 113.913 310.794 114.434 309.766 114.824C308.737 115.202 307.663 115.391 306.543 115.391C304.941 115.391 303.542 115.104 302.344 114.531C301.146 113.958 300.15 113.184 299.355 112.207C298.548 111.243 297.943 110.13 297.539 108.867C297.135 107.591 296.934 106.25 296.934 104.844V104.023C296.934 102.63 297.135 101.296 297.539 100.02C297.943 98.7435 298.548 97.6172 299.355 96.6406C300.15 95.6771 301.146 94.9089 302.344 94.3359C303.542 93.763 304.941 93.4766 306.543 93.4766C307.793 93.4766 308.939 93.6784 309.98 94.082C311.035 94.4727 311.947 95.0065 312.715 95.6836C313.47 96.3737 314.062 97.1875 314.492 98.125C314.922 99.0625 315.137 100.065 315.137 101.133H311.719C311.706 100.495 311.562 99.8958 311.289 99.3359C311.029 98.763 310.671 98.2617 310.215 97.832C309.759 97.4023 309.212 97.0638 308.574 96.8164C307.949 96.569 307.272 96.4453 306.543 96.4453C305.423 96.4453 304.479 96.6732 303.711 97.1289C302.956 97.5716 302.344 98.151 301.875 98.8672C301.406 99.5964 301.068 100.41 300.859 101.309C300.664 102.207 300.566 103.112 300.566 104.023V104.844C300.566 105.768 300.664 106.686 300.859 107.598C301.068 108.496 301.406 109.303 301.875 110.02C302.331 110.749 302.936 111.341 303.691 111.797C304.46 112.24 305.41 112.461 306.543 112.461ZM320.547 104.238C320.547 102.715 320.768 101.302 321.211 100C321.654 98.6849 322.292 97.5456 323.125 96.582C323.945 95.6185 324.948 94.8633 326.133 94.3164C327.318 93.7565 328.652 93.4766 330.137 93.4766C331.634 93.4766 332.975 93.7565 334.16 94.3164C335.358 94.8633 336.374 95.6185 337.207 96.582C338.027 97.5456 338.659 98.6849 339.102 100C339.544 101.302 339.766 102.715 339.766 104.238V104.668C339.766 106.191 339.544 107.604 339.102 108.906C338.659 110.208 338.027 111.341 337.207 112.305C336.374 113.268 335.365 114.023 334.18 114.57C332.995 115.117 331.66 115.391 330.176 115.391C328.678 115.391 327.331 115.117 326.133 114.57C324.948 114.023 323.945 113.268 323.125 112.305C322.292 111.341 321.654 110.208 321.211 108.906C320.768 107.604 320.547 106.191 320.547 104.668V104.238ZM324.16 104.668C324.16 105.71 324.284 106.706 324.531 107.656C324.779 108.594 325.156 109.421 325.664 110.137C326.159 110.853 326.784 111.419 327.539 111.836C328.294 112.253 329.173 112.461 330.176 112.461C331.165 112.461 332.031 112.253 332.773 111.836C333.529 111.419 334.16 110.853 334.668 110.137C335.163 109.421 335.534 108.594 335.781 107.656C336.029 106.706 336.152 105.71 336.152 104.668V104.238C336.152 103.21 336.022 102.227 335.762 101.289C335.514 100.339 335.143 99.5052 334.648 98.7891C334.141 98.0729 333.509 97.5065 332.754 97.0898C332.012 96.6602 331.139 96.4453 330.137 96.4453C329.134 96.4453 328.262 96.6602 327.52 97.0898C326.777 97.5065 326.159 98.0729 325.664 98.7891C325.156 99.5052 324.779 100.339 324.531 101.289C324.284 102.227 324.16 103.21 324.16 104.238V104.668ZM361.387 104.043H346.445V101.074H361.387V104.043ZM388.027 106.445C387.858 107.76 387.52 108.971 387.012 110.078C386.504 111.172 385.846 112.109 385.039 112.891C384.219 113.685 383.249 114.303 382.129 114.746C381.022 115.176 379.785 115.391 378.418 115.391C377.246 115.391 376.178 115.228 375.215 114.902C374.264 114.564 373.418 114.102 372.676 113.516C371.921 112.93 371.27 112.24 370.723 111.445C370.189 110.651 369.746 109.785 369.395 108.848C369.03 107.91 368.757 106.927 368.574 105.898C368.405 104.87 368.314 103.828 368.301 102.773V98.8086C368.314 97.7539 368.405 96.7122 368.574 95.6836C368.757 94.6549 369.03 93.6719 369.395 92.7344C369.746 91.7969 370.189 90.931 370.723 90.1367C371.27 89.3294 371.921 88.6328 372.676 88.0469C373.418 87.4609 374.264 87.0052 375.215 86.6797C376.165 86.3411 377.233 86.1719 378.418 86.1719C379.837 86.1719 381.107 86.3932 382.227 86.8359C383.346 87.2656 384.31 87.8776 385.117 88.6719C385.924 89.4792 386.569 90.4427 387.051 91.5625C387.546 92.6823 387.871 93.9193 388.027 95.2734H384.414C384.297 94.4141 384.095 93.6133 383.809 92.8711C383.522 92.1289 383.138 91.4779 382.656 90.918C382.174 90.3581 381.582 89.9219 380.879 89.6094C380.189 89.2839 379.368 89.1211 378.418 89.1211C377.559 89.1211 376.797 89.2643 376.133 89.5508C375.482 89.8242 374.922 90.2018 374.453 90.6836C373.971 91.1654 373.568 91.7253 373.242 92.3633C372.93 93.0013 372.676 93.6784 372.48 94.3945C372.285 95.1107 372.142 95.8464 372.051 96.6016C371.973 97.3438 371.934 98.0664 371.934 98.7695V102.773C371.934 103.477 371.973 104.206 372.051 104.961C372.142 105.703 372.285 106.432 372.48 107.148C372.676 107.878 372.93 108.561 373.242 109.199C373.555 109.837 373.952 110.397 374.434 110.879C374.915 111.374 375.482 111.764 376.133 112.051C376.784 112.324 377.546 112.461 378.418 112.461C379.368 112.461 380.189 112.311 380.879 112.012C381.582 111.712 382.174 111.289 382.656 110.742C383.138 110.208 383.522 109.577 383.809 108.848C384.095 108.105 384.297 107.305 384.414 106.445H388.027ZM392.617 104.238C392.617 102.715 392.839 101.302 393.281 100C393.724 98.6849 394.362 97.5456 395.195 96.582C396.016 95.6185 397.018 94.8633 398.203 94.3164C399.388 93.7565 400.723 93.4766 402.207 93.4766C403.704 93.4766 405.046 93.7565 406.23 94.3164C407.428 94.8633 408.444 95.6185 409.277 96.582C410.098 97.5456 410.729 98.6849 411.172 100C411.615 101.302 411.836 102.715 411.836 104.238V104.668C411.836 106.191 411.615 107.604 411.172 108.906C410.729 110.208 410.098 111.341 409.277 112.305C408.444 113.268 407.435 114.023 406.25 114.57C405.065 115.117 403.73 115.391 402.246 115.391C400.749 115.391 399.401 115.117 398.203 114.57C397.018 114.023 396.016 113.268 395.195 112.305C394.362 111.341 393.724 110.208 393.281 108.906C392.839 107.604 392.617 106.191 392.617 104.668V104.238ZM396.23 104.668C396.23 105.71 396.354 106.706 396.602 107.656C396.849 108.594 397.227 109.421 397.734 110.137C398.229 110.853 398.854 111.419 399.609 111.836C400.365 112.253 401.243 112.461 402.246 112.461C403.236 112.461 404.102 112.253 404.844 111.836C405.599 111.419 406.23 110.853 406.738 110.137C407.233 109.421 407.604 108.594 407.852 107.656C408.099 106.706 408.223 105.71 408.223 104.668V104.238C408.223 103.21 408.092 102.227 407.832 101.289C407.585 100.339 407.214 99.5052 406.719 98.7891C406.211 98.0729 405.579 97.5065 404.824 97.0898C404.082 96.6602 403.21 96.4453 402.207 96.4453C401.204 96.4453 400.332 96.6602 399.59 97.0898C398.848 97.5065 398.229 98.0729 397.734 98.7891C397.227 99.5052 396.849 100.339 396.602 101.289C396.354 102.227 396.23 103.21 396.23 104.238V104.668ZM419.316 93.8672L419.414 95.8594C419.844 95.1172 420.404 94.5378 421.094 94.1211C421.797 93.7044 422.643 93.4896 423.633 93.4766C424.193 93.4766 424.694 93.5417 425.137 93.6719C425.592 93.7891 425.99 93.9648 426.328 94.1992C426.576 94.3815 426.797 94.6029 426.992 94.8633C427.201 95.1237 427.376 95.4167 427.52 95.7422C427.702 95.4427 427.917 95.1628 428.164 94.9023C428.411 94.6419 428.678 94.4141 428.965 94.2188C429.329 93.9974 429.733 93.8216 430.176 93.6914C430.632 93.5612 431.126 93.4896 431.66 93.4766C432.389 93.4766 433.047 93.5872 433.633 93.8086C434.219 94.0169 434.714 94.3294 435.117 94.7461C435.56 95.2148 435.898 95.8268 436.133 96.582C436.367 97.3242 436.484 98.2031 436.484 99.2188V115H433.047V99.1797C433.047 98.737 432.995 98.3464 432.891 98.0078C432.786 97.6693 432.637 97.3893 432.441 97.168C432.233 96.9596 431.973 96.8034 431.66 96.6992C431.361 96.5951 431.009 96.543 430.605 96.543C430.176 96.543 429.805 96.6016 429.492 96.7188C429.18 96.8359 428.919 96.9922 428.711 97.1875C428.503 97.3958 428.34 97.6367 428.223 97.9102C428.105 98.1706 428.027 98.4635 427.988 98.7891C427.988 98.8542 427.988 98.9193 427.988 98.9844C427.988 99.0365 427.988 99.1016 427.988 99.1797V115H424.551V99.1602C424.551 98.7174 424.499 98.3268 424.395 97.9883C424.303 97.6497 424.154 97.3698 423.945 97.1484C423.75 96.9401 423.503 96.7904 423.203 96.6992C422.917 96.5951 422.578 96.543 422.188 96.543C421.758 96.543 421.38 96.5951 421.055 96.6992C420.742 96.7904 420.475 96.9271 420.254 97.1094C420.085 97.2526 419.935 97.4154 419.805 97.5977C419.688 97.7799 419.59 97.9753 419.512 98.1836V115H416.074V93.8672H419.316ZM441.66 123.125V93.8672H444.961L445.137 96.1719C445.423 95.8073 445.736 95.4818 446.074 95.1953C446.413 94.8958 446.777 94.6419 447.168 94.4336C447.715 94.1211 448.32 93.8867 448.984 93.7305C449.661 93.5612 450.384 93.4766 451.152 93.4766C452.507 93.4766 453.704 93.7435 454.746 94.2773C455.788 94.8112 456.66 95.5534 457.363 96.5039C458.066 97.4544 458.6 98.5938 458.965 99.9219C459.329 101.237 459.512 102.682 459.512 104.258V104.668C459.512 106.178 459.329 107.591 458.965 108.906C458.6 110.208 458.066 111.341 457.363 112.305C456.66 113.268 455.788 114.023 454.746 114.57C453.717 115.117 452.539 115.391 451.211 115.391C450.404 115.391 449.648 115.306 448.945 115.137C448.255 114.967 447.63 114.727 447.07 114.414C446.732 114.219 446.413 114.004 446.113 113.77C445.814 113.522 445.534 113.255 445.273 112.969V123.125H441.66ZM455.898 104.258C455.898 103.229 455.781 102.253 455.547 101.328C455.326 100.391 454.98 99.5638 454.512 98.8477C454.03 98.1445 453.424 97.5846 452.695 97.168C451.966 96.7513 451.094 96.543 450.078 96.543C449.518 96.543 448.997 96.6081 448.516 96.7383C448.047 96.8685 447.624 97.0573 447.246 97.3047C446.829 97.5521 446.458 97.8581 446.133 98.2227C445.807 98.5872 445.521 98.9909 445.273 99.4336V109.609C445.495 110 445.749 110.365 446.035 110.703C446.322 111.042 446.647 111.328 447.012 111.562C447.428 111.836 447.891 112.051 448.398 112.207C448.919 112.363 449.492 112.441 450.117 112.441C451.12 112.441 451.986 112.233 452.715 111.816C453.444 111.387 454.043 110.814 454.512 110.098C454.98 109.382 455.326 108.555 455.547 107.617C455.781 106.68 455.898 105.697 455.898 104.668V104.258ZM479.59 115C479.447 114.727 479.329 114.388 479.238 113.984C479.16 113.568 479.102 113.138 479.062 112.695C478.698 113.06 478.288 113.405 477.832 113.73C477.389 114.056 476.901 114.342 476.367 114.59C475.82 114.837 475.241 115.033 474.629 115.176C474.017 115.319 473.366 115.391 472.676 115.391C471.556 115.391 470.54 115.228 469.629 114.902C468.73 114.577 467.969 114.134 467.344 113.574C466.706 113.027 466.211 112.376 465.859 111.621C465.521 110.853 465.352 110.026 465.352 109.141C465.352 107.982 465.579 106.966 466.035 106.094C466.504 105.221 467.161 104.492 468.008 103.906C468.854 103.333 469.87 102.904 471.055 102.617C472.253 102.331 473.587 102.188 475.059 102.188H479.004V100.527C479.004 99.8893 478.887 99.3164 478.652 98.8086C478.418 98.3008 478.086 97.8646 477.656 97.5C477.227 97.1484 476.699 96.875 476.074 96.6797C475.462 96.4844 474.772 96.3867 474.004 96.3867C473.288 96.3867 472.643 96.4779 472.07 96.6602C471.51 96.8424 471.035 97.0833 470.645 97.3828C470.254 97.6823 469.948 98.0404 469.727 98.457C469.518 98.8607 469.414 99.2839 469.414 99.7266H465.781C465.794 98.9583 465.99 98.2031 466.367 97.4609C466.758 96.7188 467.318 96.0482 468.047 95.4492C468.763 94.8633 469.635 94.388 470.664 94.0234C471.706 93.6589 472.884 93.4766 474.199 93.4766C475.397 93.4766 476.51 93.6263 477.539 93.9258C478.568 94.2122 479.46 94.6484 480.215 95.2344C480.957 95.8333 481.543 96.5755 481.973 97.4609C482.402 98.3464 482.617 99.3815 482.617 100.566V110.391C482.617 111.094 482.682 111.842 482.812 112.637C482.943 113.418 483.125 114.102 483.359 114.688V115H479.59ZM473.203 112.246C473.906 112.246 474.564 112.155 475.176 111.973C475.788 111.79 476.348 111.549 476.855 111.25C477.35 110.951 477.78 110.612 478.145 110.234C478.509 109.844 478.796 109.44 479.004 109.023V104.746H475.645C474.395 104.746 473.301 104.857 472.363 105.078C471.439 105.286 470.703 105.612 470.156 106.055C469.766 106.367 469.466 106.738 469.258 107.168C469.062 107.598 468.965 108.086 468.965 108.633C468.965 109.154 469.049 109.635 469.219 110.078C469.401 110.521 469.668 110.898 470.02 111.211C470.371 111.536 470.814 111.79 471.348 111.973C471.882 112.155 472.5 112.246 473.203 112.246ZM489.727 115V93.8672H492.969L493.223 96.9922C493.535 96.5495 493.874 96.1458 494.238 95.7812C494.616 95.4036 495.013 95.0781 495.43 94.8047C496.055 94.388 496.732 94.069 497.461 93.8477C498.203 93.6133 498.984 93.4896 499.805 93.4766C500.911 93.4766 501.914 93.6328 502.812 93.9453C503.724 94.2578 504.499 94.7461 505.137 95.4102C505.775 96.0742 506.263 96.9206 506.602 97.9492C506.953 98.9648 507.129 100.176 507.129 101.582V115H503.516V101.66C503.516 100.723 503.411 99.9284 503.203 99.2773C502.995 98.6263 502.689 98.099 502.285 97.6953C501.868 97.2917 501.361 96.9987 500.762 96.8164C500.176 96.6341 499.499 96.543 498.73 96.543C498.066 96.543 497.448 96.6406 496.875 96.8359C496.302 97.0182 495.775 97.2721 495.293 97.5977C494.902 97.8841 494.538 98.2161 494.199 98.5938C493.874 98.9714 493.587 99.388 493.34 99.8438V115H489.727ZM514.316 93.8672H525.117V111.875H532.012V115H514.316V111.875H521.504V97.0117H514.316V93.8672ZM521.035 88.3203C521.035 88.0078 521.081 87.7148 521.172 87.4414C521.276 87.168 521.432 86.9336 521.641 86.7383C521.81 86.569 522.025 86.4388 522.285 86.3477C522.559 86.2435 522.865 86.1914 523.203 86.1914C523.542 86.1914 523.841 86.2435 524.102 86.3477C524.362 86.4388 524.577 86.569 524.746 86.7383C524.954 86.9206 525.111 87.1484 525.215 87.4219C525.319 87.6953 525.371 87.9948 525.371 88.3203C525.371 88.9062 525.189 89.3945 524.824 89.7852C524.46 90.1758 523.919 90.3711 523.203 90.3711C522.474 90.3711 521.927 90.1758 521.562 89.7852C521.211 89.3945 521.035 88.9062 521.035 88.3203ZM536.758 104.238C536.758 102.715 536.979 101.302 537.422 100C537.865 98.6849 538.503 97.5456 539.336 96.582C540.156 95.6185 541.159 94.8633 542.344 94.3164C543.529 93.7565 544.863 93.4766 546.348 93.4766C547.845 93.4766 549.186 93.7565 550.371 94.3164C551.569 94.8633 552.585 95.6185 553.418 96.582C554.238 97.5456 554.87 98.6849 555.312 100C555.755 101.302 555.977 102.715 555.977 104.238V104.668C555.977 106.191 555.755 107.604 555.312 108.906C554.87 110.208 554.238 111.341 553.418 112.305C552.585 113.268 551.576 114.023 550.391 114.57C549.206 115.117 547.871 115.391 546.387 115.391C544.889 115.391 543.542 115.117 542.344 114.57C541.159 114.023 540.156 113.268 539.336 112.305C538.503 111.341 537.865 110.208 537.422 108.906C536.979 107.604 536.758 106.191 536.758 104.668V104.238ZM540.371 104.668C540.371 105.71 540.495 106.706 540.742 107.656C540.99 108.594 541.367 109.421 541.875 110.137C542.37 110.853 542.995 111.419 543.75 111.836C544.505 112.253 545.384 112.461 546.387 112.461C547.376 112.461 548.242 112.253 548.984 111.836C549.74 111.419 550.371 110.853 550.879 110.137C551.374 109.421 551.745 108.594 551.992 107.656C552.24 106.706 552.363 105.71 552.363 104.668V104.238C552.363 103.21 552.233 102.227 551.973 101.289C551.725 100.339 551.354 99.5052 550.859 98.7891C550.352 98.0729 549.72 97.5065 548.965 97.0898C548.223 96.6602 547.35 96.4453 546.348 96.4453C545.345 96.4453 544.473 96.6602 543.73 97.0898C542.988 97.5065 542.37 98.0729 541.875 98.7891C541.367 99.5052 540.99 100.339 540.742 101.289C540.495 102.227 540.371 103.21 540.371 104.238V104.668ZM561.797 115V93.8672H565.039L565.293 96.9922C565.605 96.5495 565.944 96.1458 566.309 95.7812C566.686 95.4036 567.083 95.0781 567.5 94.8047C568.125 94.388 568.802 94.069 569.531 93.8477C570.273 93.6133 571.055 93.4896 571.875 93.4766C572.982 93.4766 573.984 93.6328 574.883 93.9453C575.794 94.2578 576.569 94.7461 577.207 95.4102C577.845 96.0742 578.333 96.9206 578.672 97.9492C579.023 98.9648 579.199 100.176 579.199 101.582V115H575.586V101.66C575.586 100.723 575.482 99.9284 575.273 99.2773C575.065 98.6263 574.759 98.099 574.355 97.6953C573.939 97.2917 573.431 96.9987 572.832 96.8164C572.246 96.6341 571.569 96.543 570.801 96.543C570.137 96.543 569.518 96.6406 568.945 96.8359C568.372 97.0182 567.845 97.2721 567.363 97.5977C566.973 97.8841 566.608 98.2161 566.27 98.5938C565.944 98.9714 565.658 99.388 565.41 99.8438V115H561.797ZM592.109 112.656C592.109 111.888 592.344 111.23 592.812 110.684C593.281 110.137 593.991 109.863 594.941 109.863C595.879 109.863 596.589 110.137 597.07 110.684C597.565 111.217 597.812 111.875 597.812 112.656C597.812 113.424 597.565 114.069 597.07 114.59C596.576 115.111 595.866 115.371 594.941 115.371C594.004 115.371 593.294 115.111 592.812 114.59C592.344 114.056 592.109 113.411 592.109 112.656Z" fill="#21204C"/>
<defs>
<filter id="filter0_d_0_1" x="-112" y="0" width="1006" height="160" filterUnits="userSpaceOnUse" color-interpolation-filters="sRGB">
<feFlood flood-opacity="0" result="BackgroundImageFix"/>
<feColorMatrix in="SourceAlpha" type="matrix" values="0 0 0 0 0 0 0 0 0 0 0 0 0 0 0 0 0 0 127 0" result="hardAlpha"/>
<feOffset dy="4"/>
<feGaussianBlur stdDeviation="2"/>
<feComposite in2="hardAlpha" operator="out"/>
<feColorMatrix type="matrix" values="0 0 0 0 0 0 0 0 0 0 0 0 0 0 0 0 0 0 0.25 0"/>
<feBlend mode="normal" in2="BackgroundImageFix" result="effect1_dropShadow_0_1"/>
<feBlend mode="normal" in="SourceGraphic" in2="effect1_dropShadow_0_1" result="shape"/>
</filter>
</defs>
</svg>
