<svg width="727" height="521" viewBox="0 0 727 521" fill="none" xmlns="http://www.w3.org/2000/svg">
<g filter="url(#filter0_d_188_55)">
<g filter="url(#filter1_d_188_55)">
<path fill-rule="evenodd" clip-rule="evenodd" d="M432.234 168.006C432.234 165.245 429.996 163.006 427.234 163.006L191.485 163.006C188.724 163.006 186.485 165.245 186.485 168.006V257.519V370.711C186.485 375.595 180.202 377.581 177.394 373.585L96.2033 258.018C95.9837 257.706 95.6255 257.519 95.2434 257.519H4.60953C4.2729 257.519 4 257.792 4 258.129V507.076C4 509.837 6.23858 512.076 9 512.076H90.2434C93.0048 512.076 95.2434 509.837 95.2434 507.076V400.909C95.2434 396.037 101.501 394.042 104.321 398.015L184.569 511.086C185.01 511.707 185.724 512.076 186.485 512.076H277.729L285.263 512.076C287.008 512.076 288.626 511.167 289.533 509.678L402.285 324.642C404.914 320.327 411.554 322.19 411.554 327.243V512.073C411.554 512.073 411.554 512.074 411.554 512.074L411.554 512.075C411.553 512.075 411.554 512.076 411.554 512.076L417.636 512.076H722.998C722.999 512.076 723 512.075 723 512.073V262.519C723 259.758 720.762 257.519 718 257.519H681.633H631.757H592.988C591.359 257.519 589.833 258.313 588.897 259.645L511.889 369.258C509.081 373.254 502.798 371.267 502.798 366.383V262.519C502.798 259.758 500.559 257.519 497.798 257.519H443.186H437.234C434.473 257.519 432.234 255.281 432.234 252.519L432.234 168.006ZM631.757 343.481C631.757 338.609 625.499 336.614 622.679 340.587L573.651 409.669C571.302 412.979 573.669 417.562 577.729 417.562H626.757C629.518 417.562 631.757 415.324 631.757 412.562V343.481ZM343.095 257.519C346.985 257.519 349.385 261.766 347.378 265.099L287.012 365.344C284.398 369.685 277.729 367.832 277.729 362.765V262.519C277.729 259.758 279.967 257.519 282.729 257.519H343.095Z" fill="#C7E7A4"/>
</g>
<g filter="url(#filter2_d_188_55)">
<path fill-rule="evenodd" clip-rule="evenodd" d="M543.2 216.587C576.842 230.785 624.988 225.524 652.223 202.648C697.565 164.561 708.577 0 708.577 0C708.577 0 507.909 93.8314 505.739 161.913C505.034 184.041 515.472 200.112 531.442 210.417C547.449 180.453 578.808 144.457 631.099 103.025L547.53 211.68C545.99 213.21 544.548 214.853 543.2 216.587Z" fill="#C7E7A4"/>
</g>
</g>
<defs>
<filter id="filter0_d_188_55" x="0" y="0" width="727" height="520.076" filterUnits="userSpaceOnUse" color-interpolation-filters="sRGB">
<feFlood flood-opacity="0" result="BackgroundImageFix"/>
<feColorMatrix in="SourceAlpha" type="matrix" values="0 0 0 0 0 0 0 0 0 0 0 0 0 0 0 0 0 0 127 0" result="hardAlpha"/>
<feOffset dy="4"/>
<feGaussianBlur stdDeviation="2"/>
<feComposite in2="hardAlpha" operator="out"/>
<feColorMatrix type="matrix" values="0 0 0 0 0 0 0 0 0 0 0 0 0 0 0 0 0 0 0.25 0"/>
<feBlend mode="normal" in2="BackgroundImageFix" result="effect1_dropShadow_188_55"/>
<feBlend mode="normal" in="SourceGraphic" in2="effect1_dropShadow_188_55" result="shape"/>
</filter>
<filter id="filter1_d_188_55" x="0" y="163.006" width="727" height="357.07" filterUnits="userSpaceOnUse" color-interpolation-filters="sRGB">
<feFlood flood-opacity="0" result="BackgroundImageFix"/>
<feColorMatrix in="SourceAlpha" type="matrix" values="0 0 0 0 0 0 0 0 0 0 0 0 0 0 0 0 0 0 127 0" result="hardAlpha"/>
<feOffset dy="4"/>
<feGaussianBlur stdDeviation="2"/>
<feComposite in2="hardAlpha" operator="out"/>
<feColorMatrix type="matrix" values="0 0 0 0 0 0 0 0 0 0 0 0 0 0 0 0 0 0 0.3 0"/>
<feBlend mode="normal" in2="BackgroundImageFix" result="effect1_dropShadow_188_55"/>
<feBlend mode="normal" in="SourceGraphic" in2="effect1_dropShadow_188_55" result="shape"/>
</filter>
<filter id="filter2_d_188_55" x="501.706" y="0" width="210.871" height="232.448" filterUnits="userSpaceOnUse" color-interpolation-filters="sRGB">
<feFlood flood-opacity="0" result="BackgroundImageFix"/>
<feColorMatrix in="SourceAlpha" type="matrix" values="0 0 0 0 0 0 0 0 0 0 0 0 0 0 0 0 0 0 127 0" result="hardAlpha"/>
<feOffset dy="4"/>
<feGaussianBlur stdDeviation="2"/>
<feComposite in2="hardAlpha" operator="out"/>
<feColorMatrix type="matrix" values="0 0 0 0 0 0 0 0 0 0 0 0 0 0 0 0 0 0 0.3 0"/>
<feBlend mode="normal" in2="BackgroundImageFix" result="effect1_dropShadow_188_55"/>
<feBlend mode="normal" in="SourceGraphic" in2="effect1_dropShadow_188_55" result="shape"/>
</filter>
</defs>
</svg>
