<svg width="159" height="108" viewBox="0 0 159 108" fill="none" xmlns="http://www.w3.org/2000/svg">
<path fill-rule="evenodd" clip-rule="evenodd" d="M94.7005 37.8966C94.7005 35.1352 92.4619 32.8966 89.7005 32.8966L45.3553 32.8966C42.5939 32.8966 40.3553 35.1352 40.3553 37.8966V53.0743V65.2483C40.3553 70.09 34.1614 72.1052 31.3125 68.1904L20.3913 53.183C20.3416 53.1147 20.2622 53.0743 20.1777 53.0743H0.134518C0.0602257 53.0743 0 53.1345 0 53.2088V102.419C0 105.181 2.23857 107.419 5 107.419H15.1777C17.9391 107.419 20.1777 105.181 20.1777 102.419V95.5812C20.1777 90.7518 26.3457 88.7286 29.2062 92.6196L39.9269 107.203C40.0271 107.339 40.1862 107.419 40.3553 107.419H43.0457H59.8604H60.533C61.9565 107.419 63.2806 106.689 64.0404 105.486L80.8987 78.7768C83.5738 74.5385 90.1269 76.4337 90.1269 81.4455L90.1269 106.074C90.1269 106.817 90.7292 107.419 91.4721 107.419H109.901H110.305H138.822H154C156.761 107.419 159 105.181 159 102.419V87.2418V58.0743C159 55.3129 156.761 53.0743 154 53.0743H149.853H138.822H132.22C130.621 53.0743 129.118 53.8392 128.178 55.1322L119.347 67.2661C116.499 71.1809 110.305 69.1657 110.305 64.3241V58.0743C110.305 55.3129 108.066 53.0743 105.305 53.0743H97.1218C95.7846 53.0743 94.7005 51.9902 94.7005 50.653V37.8966ZM138.822 82.5085C138.822 77.9367 132.983 76.0214 130.275 79.7049C127.977 82.8307 130.209 87.2418 134.089 87.2418C136.703 87.2418 138.822 85.1226 138.822 82.5085ZM67.9324 53.0743C71.8576 53.0743 74.2521 57.3901 72.1747 60.7205L69.7753 64.5671C67.1155 68.8314 60.533 66.9467 60.533 61.9209V58.0743C60.533 55.3129 62.7716 53.0743 65.533 53.0743H67.9324Z" fill="#C7E7A4"/>
<path fill-rule="evenodd" clip-rule="evenodd" d="M119.239 47.8963C126.679 51.0361 137.326 49.8726 143.348 44.8138C153.376 36.3913 155.811 0 155.811 0C155.811 0 111.435 20.75 110.955 35.8055C110.799 40.6991 113.107 44.253 116.639 46.5319C120.179 39.9056 127.113 31.9453 138.677 22.783L120.197 46.8111C119.856 47.1495 119.537 47.5129 119.239 47.8963Z" fill="#C7E7A4"/>
</svg>