<?xml version="1.0" encoding="UTF-8"?>
<svg xmlns="http://www.w3.org/2000/svg" xmlns:xlink="http://www.w3.org/1999/xlink" version="1.1" viewBox="0 0 959.61 553.15">
  <!-- Generator: Adobe Illustrator 29.5.0, SVG Export Plug-In . SVG Version: 2.1.0 Build 137)  -->
  <defs>
    <style>
      .st0 {
        fill: none;
      }

      .st1 {
        fill: url(#linear-gradient7);
      }

      .st1, .st2, .st3, .st4, .st5, .st6, .st7, .st8, .st9, .st10, .st11, .st12, .st13, .st14 {
        mix-blend-mode: screen;
      }

      .st1, .st14 {
        opacity: .2;
      }

      .st2 {
        fill: url(#linear-gradient8);
      }

      .st2, .st3, .st4, .st5, .st15, .st11, .st12, .st13 {
        opacity: .5;
      }

      .st3 {
        fill: url(#linear-gradient4);
      }

      .st4 {
        fill: url(#linear-gradient5);
      }

      .st5 {
        fill: url(#linear-gradient9);
      }

      .st6 {
        fill: url(#linear-gradient1);
      }

      .st7 {
        fill: url(#linear-gradient2);
      }

      .st8 {
        fill: url(#linear-gradient6);
      }

      .st9 {
        fill: url(#linear-gradient3);
      }

      .st10, .st16 {
        fill: #fff;
      }

      .st17 {
        fill: url(#_ÂÁ_Ï_ÌÌ_È_ËÂÌÚ_35410);
      }

      .st17, .st18, .st19, .st20, .st21, .st22, .st23, .st24, .st25, .st26, .st27 {
        mix-blend-mode: color-dodge;
      }

      .st28 {
        fill: url(#linear-gradient);
      }

      .st29 {
        isolation: isolate;
      }

      .st18 {
        fill: url(#_ÂÁ_Ï_ÌÌ_È_ËÂÌÚ_354);
      }

      .st19 {
        fill: url(#_ÂÁ_Ï_ÌÌ_È_ËÂÌÚ_3548);
      }

      .st20 {
        fill: url(#_ÂÁ_Ï_ÌÌ_È_ËÂÌÚ_3545);
      }

      .st21 {
        fill: url(#_ÂÁ_Ï_ÌÌ_È_ËÂÌÚ_3549);
      }

      .st22 {
        fill: url(#_ÂÁ_Ï_ÌÌ_È_ËÂÌÚ_3544);
      }

      .st23 {
        fill: url(#_ÂÁ_Ï_ÌÌ_È_ËÂÌÚ_3547);
      }

      .st24 {
        fill: url(#_ÂÁ_Ï_ÌÌ_È_ËÂÌÚ_3546);
      }

      .st25 {
        fill: url(#_ÂÁ_Ï_ÌÌ_È_ËÂÌÚ_3543);
      }

      .st26 {
        fill: url(#_ÂÁ_Ï_ÌÌ_È_ËÂÌÚ_3542);
      }

      .st27 {
        fill: url(#_ÂÁ_Ï_ÌÌ_È_ËÂÌÚ_3541);
      }

      .st11 {
        fill: url(#linear-gradient11);
      }

      .st12 {
        fill: url(#linear-gradient12);
      }

      .st13 {
        fill: url(#linear-gradient13);
      }

      .st14 {
        fill: url(#linear-gradient10);
      }

      .st30 {
        clip-path: url(#clippath);
      }
    </style>
    <clipPath id="clippath">
      <rect class="st0" width="959.57" height="553.15"/>
    </clipPath>
    <linearGradient id="linear-gradient" x1="479.78" y1="-18.56" x2="479.78" y2="591.05" gradientUnits="userSpaceOnUse">
      <stop offset="0" stop-color="#242d44"/>
      <stop offset=".4" stop-color="#252e45"/>
      <stop offset=".55" stop-color="#2c324b"/>
      <stop offset=".65" stop-color="#383a56"/>
      <stop offset=".73" stop-color="#494665"/>
      <stop offset=".8" stop-color="#5f5479"/>
      <stop offset=".87" stop-color="#7a6791"/>
      <stop offset=".92" stop-color="#9a7cae"/>
      <stop offset=".98" stop-color="#bf95cf"/>
      <stop offset="1" stop-color="#d4a3e2"/>
    </linearGradient>
    <linearGradient id="linear-gradient1" x1="316.4" y1="120.53" x2="176.46" y2="260.48" gradientTransform="translate(208.43 -114.71) rotate(45)" gradientUnits="userSpaceOnUse">
      <stop offset="0" stop-color="#000"/>
      <stop offset=".38" stop-color="#010101"/>
      <stop offset=".52" stop-color="#080608"/>
      <stop offset=".62" stop-color="#130e14"/>
      <stop offset=".7" stop-color="#231a25"/>
      <stop offset=".76" stop-color="#372a3b"/>
      <stop offset=".82" stop-color="#513e56"/>
      <stop offset=".88" stop-color="#6f5577"/>
      <stop offset=".93" stop-color="#93719c"/>
      <stop offset=".97" stop-color="#b98ec5"/>
      <stop offset="1" stop-color="#d4a3e2"/>
    </linearGradient>
    <linearGradient id="linear-gradient2" x1="461.21" y1="304.01" x2="387.31" y2="377.9" gradientUnits="userSpaceOnUse">
      <stop offset="0" stop-color="#000"/>
      <stop offset=".38" stop-color="#010101"/>
      <stop offset=".52" stop-color="#080608"/>
      <stop offset=".62" stop-color="#130e14"/>
      <stop offset=".7" stop-color="#231a25"/>
      <stop offset=".76" stop-color="#372a3b"/>
      <stop offset=".82" stop-color="#513e56"/>
      <stop offset=".88" stop-color="#6f5577"/>
      <stop offset=".93" stop-color="#93719c"/>
      <stop offset=".97" stop-color="#b98ec5"/>
      <stop offset="1" stop-color="#d4a3e2"/>
    </linearGradient>
    <linearGradient id="linear-gradient3" x1="822.91" y1="103.41" x2="756.42" y2="169.89" gradientTransform="translate(516.42 -614.06) rotate(60.2)" gradientUnits="userSpaceOnUse">
      <stop offset="0" stop-color="#000"/>
      <stop offset=".38" stop-color="#010101"/>
      <stop offset=".52" stop-color="#080608"/>
      <stop offset=".62" stop-color="#130e14"/>
      <stop offset=".7" stop-color="#231a25"/>
      <stop offset=".76" stop-color="#372a3b"/>
      <stop offset=".82" stop-color="#513e56"/>
      <stop offset=".88" stop-color="#6f5577"/>
      <stop offset=".93" stop-color="#93719c"/>
      <stop offset=".97" stop-color="#b98ec5"/>
      <stop offset="1" stop-color="#d4a3e2"/>
    </linearGradient>
    <linearGradient id="linear-gradient4" x1="488.61" y1="306.85" x2="451.33" y2="344.13" gradientTransform="translate(368.22 -235.99) rotate(45)" gradientUnits="userSpaceOnUse">
      <stop offset="0" stop-color="#000"/>
      <stop offset=".14" stop-color="#030302"/>
      <stop offset=".27" stop-color="#0c0f0a"/>
      <stop offset=".4" stop-color="#1d2218"/>
      <stop offset=".53" stop-color="#343d2b"/>
      <stop offset=".66" stop-color="#515f43"/>
      <stop offset=".78" stop-color="#768961"/>
      <stop offset=".9" stop-color="#a0bb84"/>
      <stop offset="1" stop-color="#c6e7a3"/>
    </linearGradient>
    <linearGradient id="linear-gradient5" x1="613.75" y1="-56.36" x2="372.19" y2="185.2" gradientUnits="userSpaceOnUse">
      <stop offset="0" stop-color="#000"/>
      <stop offset=".14" stop-color="#020103"/>
      <stop offset=".27" stop-color="#09050f"/>
      <stop offset=".4" stop-color="#140c22"/>
      <stop offset=".52" stop-color="#24153d"/>
      <stop offset=".64" stop-color="#39225f"/>
      <stop offset=".77" stop-color="#523189"/>
      <stop offset=".89" stop-color="#7042bb"/>
      <stop offset="1" stop-color="#9156f1"/>
    </linearGradient>
    <linearGradient id="linear-gradient6" x1="341.83" y1="201.34" x2="319.02" y2="224.16" gradientUnits="userSpaceOnUse">
      <stop offset="0" stop-color="#000"/>
      <stop offset=".14" stop-color="#030302"/>
      <stop offset=".27" stop-color="#0c0f0a"/>
      <stop offset=".4" stop-color="#1d2218"/>
      <stop offset=".53" stop-color="#343d2b"/>
      <stop offset=".66" stop-color="#515f43"/>
      <stop offset=".78" stop-color="#768961"/>
      <stop offset=".9" stop-color="#a0bb84"/>
      <stop offset="1" stop-color="#c6e7a3"/>
    </linearGradient>
    <linearGradient id="_ÂÁ_Ï_ÌÌ_È_ËÂÌÚ_354" data-name="¡ÂÁ˚ÏˇÌÌ˚È „‡‰ËÂÌÚ 354" x1="1158.69" y1="2355.23" x2="992.19" y2="2521.74" gradientTransform="translate(1709.44 2876.32) rotate(-45) scale(1 -1)" gradientUnits="userSpaceOnUse">
      <stop offset="0" stop-color="#000"/>
      <stop offset=".13" stop-color="#030303"/>
      <stop offset=".26" stop-color="#0f0f0f"/>
      <stop offset=".38" stop-color="#222"/>
      <stop offset=".51" stop-color="#3d3d3d"/>
      <stop offset=".63" stop-color="#5f5f5f"/>
      <stop offset=".75" stop-color="#8a8a8a"/>
      <stop offset=".87" stop-color="#bcbcbc"/>
      <stop offset=".98" stop-color="#f4f4f4"/>
      <stop offset="1" stop-color="#fff"/>
    </linearGradient>
    <linearGradient id="_ÂÁ_Ï_ÌÌ_È_ËÂÌÚ_3541" data-name="¡ÂÁ˚ÏˇÌÌ˚È „‡‰ËÂÌÚ 354" x1="692.44" y1="2549.41" x2="525.93" y2="2715.91" xlink:href="#_ÂÁ_Ï_ÌÌ_È_ËÂÌÚ_354"/>
    <linearGradient id="_ÂÁ_Ï_ÌÌ_È_ËÂÌÚ_3542" data-name="¡ÂÁ˚ÏˇÌÌ˚È „‡‰ËÂÌÚ 354" x1="1457.94" y1="2414.44" x2="1291.44" y2="2580.95" xlink:href="#_ÂÁ_Ï_ÌÌ_È_ËÂÌÚ_354"/>
    <linearGradient id="_ÂÁ_Ï_ÌÌ_È_ËÂÌÚ_3543" data-name="¡ÂÁ˚ÏˇÌÌ˚È „‡‰ËÂÌÚ 354" x1="874.38" y1="2808.93" x2="655.26" y2="3028.05" xlink:href="#_ÂÁ_Ï_ÌÌ_È_ËÂÌÚ_354"/>
    <linearGradient id="_ÂÁ_Ï_ÌÌ_È_ËÂÌÚ_3544" data-name="¡ÂÁ˚ÏˇÌÌ˚È „‡‰ËÂÌÚ 354" x1="1056.58" y1="2267.99" x2="837.46" y2="2487.11" xlink:href="#_ÂÁ_Ï_ÌÌ_È_ËÂÌÚ_354"/>
    <linearGradient id="_ÂÁ_Ï_ÌÌ_È_ËÂÌÚ_3545" data-name="¡ÂÁ˚ÏˇÌÌ˚È „‡‰ËÂÌÚ 354" x1="337.42" y1="898.88" x2="194.4" y2="1041.9" gradientTransform="translate(-176.54 -771.24) rotate(135) scale(1 -1)" xlink:href="#_ÂÁ_Ï_ÌÌ_È_ËÂÌÚ_354"/>
    <linearGradient id="_ÂÁ_Ï_ÌÌ_È_ËÂÌÚ_3546" data-name="¡ÂÁ˚ÏˇÌÌ˚È „‡‰ËÂÌÚ 354" x1="618.55" y1="961.65" x2="425.2" y2="1155" gradientTransform="translate(-176.54 -771.24) rotate(135) scale(1 -1)" xlink:href="#_ÂÁ_Ï_ÌÌ_È_ËÂÌÚ_354"/>
    <linearGradient id="_ÂÁ_Ï_ÌÌ_È_ËÂÌÚ_3547" data-name="¡ÂÁ˚ÏˇÌÌ˚È „‡‰ËÂÌÚ 354" x1="477.97" y1="755.73" x2="284.62" y2="949.08" gradientTransform="translate(-176.54 -771.24) rotate(135) scale(1 -1)" xlink:href="#_ÂÁ_Ï_ÌÌ_È_ËÂÌÚ_354"/>
    <linearGradient id="_ÂÁ_Ï_ÌÌ_È_ËÂÌÚ_3548" data-name="¡ÂÁ˚ÏˇÌÌ˚È „‡‰ËÂÌÚ 354" x1="137.29" y1="1046.9" x2="-66.27" y2="1250.46" gradientTransform="translate(-176.54 -771.24) rotate(135) scale(1 -1)" xlink:href="#_ÂÁ_Ï_ÌÌ_È_ËÂÌÚ_354"/>
    <linearGradient id="_ÂÁ_Ï_ÌÌ_È_ËÂÌÚ_3549" data-name="¡ÂÁ˚ÏˇÌÌ˚È „‡‰ËÂÌÚ 354" x1="223.07" y1="1288.49" x2="19.51" y2="1492.06" gradientTransform="translate(-176.54 -771.24) rotate(135) scale(1 -1)" xlink:href="#_ÂÁ_Ï_ÌÌ_È_ËÂÌÚ_354"/>
    <linearGradient id="_ÂÁ_Ï_ÌÌ_È_ËÂÌÚ_35410" data-name="¡ÂÁ˚ÏˇÌÌ˚È „‡‰ËÂÌÚ 354" x1="281.46" y1="750.35" x2="77.9" y2="953.91" gradientTransform="translate(-176.54 -771.24) rotate(135) scale(1 -1)" xlink:href="#_ÂÁ_Ï_ÌÌ_È_ËÂÌÚ_354"/>
    <linearGradient id="linear-gradient7" x1="762.15" y1="-205.66" x2="499.9" y2="56.58" gradientTransform="translate(1017.74 -172.82) rotate(135) scale(1 -1)" gradientUnits="userSpaceOnUse">
      <stop offset="0" stop-color="#000"/>
      <stop offset=".14" stop-color="#020103"/>
      <stop offset=".27" stop-color="#09050f"/>
      <stop offset=".4" stop-color="#140c22"/>
      <stop offset=".52" stop-color="#24153d"/>
      <stop offset=".64" stop-color="#39225f"/>
      <stop offset=".77" stop-color="#523189"/>
      <stop offset=".89" stop-color="#7042bb"/>
      <stop offset="1" stop-color="#9156f1"/>
    </linearGradient>
    <linearGradient id="linear-gradient8" x1="830.97" y1="-630.68" x2="568.72" y2="-368.44" gradientTransform="translate(1017.74 -172.82) rotate(135) scale(1 -1)" gradientUnits="userSpaceOnUse">
      <stop offset="0" stop-color="#000"/>
      <stop offset=".14" stop-color="#030302"/>
      <stop offset=".27" stop-color="#0c0f0a"/>
      <stop offset=".4" stop-color="#1d2218"/>
      <stop offset=".53" stop-color="#343d2b"/>
      <stop offset=".66" stop-color="#515f43"/>
      <stop offset=".78" stop-color="#768961"/>
      <stop offset=".9" stop-color="#a0bb84"/>
      <stop offset="1" stop-color="#c6e7a3"/>
    </linearGradient>
    <linearGradient id="linear-gradient9" x1="473.5" y1="-266.81" x2="211.25" y2="-4.57" gradientTransform="translate(1017.74 -172.82) rotate(135) scale(1 -1)" gradientUnits="userSpaceOnUse">
      <stop offset="0" stop-color="#000"/>
      <stop offset=".14" stop-color="#030302"/>
      <stop offset=".27" stop-color="#0c0f0a"/>
      <stop offset=".4" stop-color="#1d2218"/>
      <stop offset=".53" stop-color="#343d2b"/>
      <stop offset=".66" stop-color="#515f43"/>
      <stop offset=".78" stop-color="#768961"/>
      <stop offset=".9" stop-color="#a0bb84"/>
      <stop offset="1" stop-color="#c6e7a3"/>
    </linearGradient>
    <linearGradient id="linear-gradient10" x1="1067.57" y1="-687.06" x2="805.33" y2="-424.82" gradientTransform="translate(1017.74 -172.82) rotate(135) scale(1 -1)" gradientUnits="userSpaceOnUse">
      <stop offset="0" stop-color="#000"/>
      <stop offset=".14" stop-color="#020103"/>
      <stop offset=".27" stop-color="#09050f"/>
      <stop offset=".4" stop-color="#140c22"/>
      <stop offset=".52" stop-color="#24153d"/>
      <stop offset=".64" stop-color="#39225f"/>
      <stop offset=".77" stop-color="#523189"/>
      <stop offset=".89" stop-color="#7042bb"/>
      <stop offset="1" stop-color="#9156f1"/>
    </linearGradient>
    <linearGradient id="linear-gradient11" x1="1676.82" y1="1900.43" x2="1414.58" y2="2162.67" gradientTransform="translate(986.54 3052.33) rotate(-45) scale(1 -1)" gradientUnits="userSpaceOnUse">
      <stop offset="0" stop-color="#000"/>
      <stop offset=".14" stop-color="#030302"/>
      <stop offset=".27" stop-color="#0c0f0a"/>
      <stop offset=".4" stop-color="#1d2218"/>
      <stop offset=".53" stop-color="#343d2b"/>
      <stop offset=".66" stop-color="#515f43"/>
      <stop offset=".78" stop-color="#768961"/>
      <stop offset=".9" stop-color="#a0bb84"/>
      <stop offset="1" stop-color="#c6e7a3"/>
    </linearGradient>
    <linearGradient id="linear-gradient12" x1="1418.87" y1="2255.65" x2="1156.63" y2="2517.89" gradientTransform="translate(986.54 3052.33) rotate(-45) scale(1 -1)" gradientUnits="userSpaceOnUse">
      <stop offset="0" stop-color="#000"/>
      <stop offset=".14" stop-color="#030302"/>
      <stop offset=".27" stop-color="#0c0f0a"/>
      <stop offset=".4" stop-color="#1d2218"/>
      <stop offset=".53" stop-color="#343d2b"/>
      <stop offset=".66" stop-color="#515f43"/>
      <stop offset=".78" stop-color="#768961"/>
      <stop offset=".9" stop-color="#a0bb84"/>
      <stop offset="1" stop-color="#c6e7a3"/>
    </linearGradient>
    <linearGradient id="linear-gradient13" x1="1915.9" y1="1740.12" x2="1653.66" y2="2002.36" gradientTransform="translate(986.54 3052.33) rotate(-45) scale(1 -1)" gradientUnits="userSpaceOnUse">
      <stop offset="0" stop-color="#000"/>
      <stop offset=".14" stop-color="#020103"/>
      <stop offset=".27" stop-color="#09050f"/>
      <stop offset=".4" stop-color="#140c22"/>
      <stop offset=".52" stop-color="#24153d"/>
      <stop offset=".64" stop-color="#39225f"/>
      <stop offset=".77" stop-color="#523189"/>
      <stop offset=".89" stop-color="#7042bb"/>
      <stop offset="1" stop-color="#9156f1"/>
    </linearGradient>
  </defs>
  <g class="st29">
    <g id="_x2014_ÎÓÈ_x5F_1">
      <g>
        <g class="st30">
          <rect id="background" class="st28" width="959.57" height="553.15"/>
          <g class="st15">
            <path class="st16" d="M664.52,267.87c0-.69.56-1.26,1.26-1.26s1.26.56,1.26,1.26-.56,1.26-1.26,1.26-1.26-.56-1.26-1.26Z"/>
            <path class="st16" d="M707.86,240.45c0-.69.56-1.26,1.26-1.26s1.26.56,1.26,1.26-.56,1.26-1.26,1.26-1.26-.56-1.26-1.26Z"/>
            <path class="st16" d="M809.24,142.79c0-.69.56-1.26,1.26-1.26s1.26.56,1.26,1.26-.56,1.26-1.26,1.26-1.26-.56-1.26-1.26Z"/>
            <path class="st16" d="M740.94,221.15c0-.69.56-1.26,1.26-1.26s1.26.56,1.26,1.26-.56,1.26-1.26,1.26-1.26-.56-1.26-1.26Z"/>
            <path class="st16" d="M647.16,229.32c1,0,1.8.81,1.8,1.8s-.81,1.8-1.8,1.8-1.8-.81-1.8-1.8.81-1.8,1.8-1.8Z"/>
            <circle class="st16" cx="614.57" cy="357.42" r="1.8"/>
            <path class="st16" d="M620.11,88.03c1,0,1.8.81,1.8,1.8s-.81,1.8-1.8,1.8-1.8-.81-1.8-1.8.81-1.8,1.8-1.8Z"/>
            <path class="st16" d="M697.37,256.16c1,0,1.8.81,1.8,1.8s-.81,1.8-1.8,1.8-1.8-.81-1.8-1.8.81-1.8,1.8-1.8Z"/>
            <circle class="st16" cx="887.7" cy="291.9" r="1.8"/>
            <circle class="st16" cx="462.78" cy="145.85" r="1.8"/>
            <circle class="st16" cx="688.28" cy="231.21" r=".63"/>
            <circle class="st16" cx="820.36" cy="371.98" r=".63"/>
            <circle class="st16" cx="720.92" cy="191.11" r=".63"/>
            <path class="st16" d="M660.69,214.01c0-.17.14-.31.31-.31s.31.14.31.31-.14.31-.31.31-.31-.14-.31-.31Z"/>
            <path class="st16" d="M628.24,89.83c0-.17.14-.31.31-.31s.31.14.31.31-.14.31-.31.31-.31-.14-.31-.31Z"/>
            <circle class="st16" cx="614.89" cy="196.48" r=".31"/>
            <path class="st16" d="M660.38,247.58c0-.17.14-.31.31-.31s.31.14.31.31-.14.31-.31.31-.31-.14-.31-.31Z"/>
            <circle class="st16" cx="670.61" cy="269.44" r=".31"/>
            <path class="st16" d="M690.9,231.83c0-.17.14-.31.31-.31s.31.14.31.31-.14.31-.31.31-.31-.14-.31-.31Z"/>
            <path class="st16" d="M277.89,116.73c0-.69.56-1.26,1.26-1.26s1.26.56,1.26,1.26-.56,1.26-1.26,1.26-1.26-.56-1.26-1.26Z"/>
            <path class="st16" d="M310.98,97.43c0-.69.56-1.26,1.26-1.26s1.26.56,1.26,1.26-.56,1.26-1.26,1.26-1.26-.56-1.26-1.26Z"/>
            <path class="st16" d="M267.41,132.45c1,0,1.8.81,1.8,1.8s-.81,1.8-1.8,1.8-1.8-.81-1.8-1.8.81-1.8,1.8-1.8Z"/>
            <path class="st16" d="M290.32,67.4c0-.35.28-.63.63-.63s.63.28.63.63-.28.63-.63.63-.63-.28-.63-.63Z"/>
            <path class="st16" d="M260.94,108.12c0-.17.14-.31.31-.31s.31.14.31.31-.14.31-.31.31-.31-.14-.31-.31Z"/>
            <circle class="st16" cx="670.3" cy="189.22" r=".31"/>
            <circle class="st16" cx="549.28" cy="96.18" r=".31"/>
            <path class="st16" d="M439.08,164.73c0-.35.28-.63.63-.63s.63.28.63.63-.28.63-.63.63-.63-.28-.63-.63Z"/>
            <circle class="st16" cx="412.43" cy="147.53" r=".31"/>
            <circle class="st16" cx="442.64" cy="165.35" r=".31"/>
            <circle class="st16" cx="421.72" cy="122.74" r=".31"/>
            <path class="st16" d="M676.66,240.45c0-.17.14-.31.31-.31s.31.14.31.31-.14.31-.31.31-.31-.14-.31-.31Z"/>
            <circle class="st16" cx="644.42" cy="227.41" r=".31"/>
            <path class="st16" d="M729.03,416.72c-.49.49-1.29.49-1.78,0s-.49-1.29,0-1.78c.49-.49,1.29-.49,1.78,0,.49.49.49,1.29,0,1.78Z"/>
            <path class="st16" d="M802.99,308.37c-.49.49-1.29.49-1.78,0-.49-.49-.49-1.29,0-1.78.49-.49,1.29-.49,1.78,0s.49,1.29,0,1.78Z"/>
            <path class="st16" d="M679,405.47c-.49.49-1.29.49-1.78,0-.49-.49-.49-1.29,0-1.78s1.29-.49,1.78,0,.49,1.29,0,1.78Z"/>
            <path class="st16" d="M641.95,395.72c-.49.49-1.29.49-1.78,0s-.49-1.29,0-1.78c.49-.49,1.29-.49,1.78,0,.49.49.49,1.29,0,1.78Z"/>
            <path class="st16" d="M714.04,456.25c-.7-.7-.7-1.84,0-2.55.7-.7,1.84-.7,2.55,0s.7,1.84,0,2.55c-.7.7-1.84.7-2.55,0Z"/>
            <path class="st16" d="M697.52,401.77c-.7-.7-.7-1.84,0-2.55.7-.7,1.84-.7,2.55,0s.7,1.84,0,2.55c-.7.7-1.84.7-2.55,0Z"/>
            <path class="st16" d="M450.49,386.09c-.7-.7-.7-1.84,0-2.55s1.84-.7,2.55,0c.7.7.7,1.84,0,2.55-.7.7-1.84.7-2.55,0Z"/>
            <path class="st16" d="M686.74,426.29c-.25.25-.64.25-.89,0-.25-.25-.25-.64,0-.89.25-.25.64-.25.89,0,.25.25.25.64,0,.89Z"/>
            <path class="st16" d="M635.32,431.56c-.25.25-.64.25-.89,0s-.25-.64,0-.89c.25-.25.64-.25.89,0,.25.25.25.64,0,.89Z"/>
            <path class="st16" d="M693.65,457.51c-.12.12-.32.12-.44,0s-.12-.32,0-.44c.12-.12.32-.12.44,0,.12.12.12.32,0,.44Z"/>
            <path class="st16" d="M713.86,502.52c-.12.12-.32.12-.44,0s-.12-.32,0-.44c.12-.12.32-.12.44,0,.12.12.12.32,0,.44Z"/>
            <path class="st16" d="M717.61,433.99c-.12.12-.32.12-.44,0s-.12-.32,0-.44.32-.12.44,0c.12.12.12.32,0,.44Z"/>
            <path class="st16" d="M726.06,411.52c-.12.12-.32.12-.44,0s-.12-.32,0-.44.32-.12.44,0c.12.12.12.32,0,.44Z"/>
            <path class="st16" d="M684.89,423.55c-.12.12-.32.12-.44,0-.12-.12-.12-.32,0-.44.12-.12.32-.12.44,0s.12.32,0,.44Z"/>
            <path class="st16" d="M669.56,468.47c-.12.12-.32.12-.44,0-.12-.12-.12-.32,0-.44.12-.12.32-.12.44,0s.12.32,0,.44Z"/>
            <path class="st16" d="M701.06,427.53c-.12.12-.32.12-.44,0s-.12-.32,0-.44c.12-.12.32-.12.44,0s.12.32,0,.44Z"/>
            <path class="st16" d="M714.86,459.76c-.12.12-.32.12-.44,0-.12-.12-.12-.32,0-.44.12-.12.32-.12.44,0,.12.12.12.32,0,.44Z"/>
            <path class="st16" d="M193.26,172.53c.49.49.49,1.29,0,1.78-.49.49-1.29.49-1.78,0-.49-.49-.49-1.29,0-1.78s1.29-.49,1.78,0Z"/>
            <path class="st16" d="M182.01,222.57c.49.49.49,1.29,0,1.78s-1.29.49-1.78,0c-.49-.49-.49-1.29,0-1.78s1.29-.49,1.78,0Z"/>
            <path class="st16" d="M172.26,259.61c.49.49.49,1.29,0,1.78s-1.29.49-1.78,0c-.49-.49-.49-1.29,0-1.78s1.29-.49,1.78,0Z"/>
            <path class="st16" d="M232.79,187.52c-.7.7-1.84.7-2.55,0-.7-.7-.7-1.84,0-2.55.7-.7,1.84-.7,2.55,0,.7.7.7,1.84,0,2.55Z"/>
            <circle class="st16" cx="165.25" cy="73.9" r="1.8"/>
            <path class="st16" d="M178.3,204.04c-.7.7-1.84.7-2.55,0-.7-.7-.7-1.84,0-2.55.7-.7,1.84-.7,2.55,0,.7.7.7,1.84,0,2.55Z"/>
            <path class="st16" d="M202.82,214.82c.25.25.25.64,0,.89-.25.25-.64.25-.89,0-.25-.25-.25-.64,0-.89.25-.25.64-.25.89,0Z"/>
            <path class="st16" d="M234.05,207.91c.12.12.12.32,0,.44-.12.12-.32.12-.44,0-.12-.12-.12-.32,0-.44.12-.12.32-.12.44,0Z"/>
            <path class="st16" d="M279.06,187.7c.12.12.12.32,0,.44-.12.12-.32.12-.44,0-.12-.12-.12-.32,0-.44.12-.12.32-.12.44,0Z"/>
            <circle class="st16" cx="210.31" cy="184.18" r=".31"/>
            <path class="st16" d="M188.06,175.51c.12.12.12.32,0,.44-.12.12-.32.12-.44,0s-.12-.32,0-.44c.12-.12.32-.12.44,0Z"/>
            <path class="st16" d="M200.08,216.67c.12.12.12.32,0,.44-.12.12-.32.12-.44,0s-.12-.32,0-.44c.12-.12.32-.12.44,0Z"/>
            <path class="st16" d="M204.07,200.51c.12.12.12.32,0,.44-.12.12-.32.12-.44,0s-.12-.32,0-.44.32-.12.44,0Z"/>
            <path class="st16" d="M236.3,186.71c.12.12.12.32,0,.44-.12.12-.32.12-.44,0-.12-.12-.12-.32,0-.44.12-.12.32-.12.44,0Z"/>
            <path class="st16" d="M42.39,112.9c0-.69.56-1.26,1.26-1.26s1.26.56,1.26,1.26-.56,1.26-1.26,1.26-1.26-.56-1.26-1.26Z"/>
            <circle class="st16" cx="67.96" cy="241.81" r="1.26"/>
            <circle class="st16" cx="86.98" cy="85.47" r="1.26"/>
            <path class="st16" d="M118.81,66.17c0-.69.56-1.26,1.26-1.26s1.26.56,1.26,1.26-.56,1.26-1.26,1.26-1.26-.56-1.26-1.26Z"/>
            <path class="st16" d="M25.03,74.35c1,0,1.8.81,1.8,1.8s-.81,1.8-1.8,1.8-1.8-.81-1.8-1.8.81-1.8,1.8-1.8Z"/>
            <path class="st16" d="M75.24,101.19c1,0,1.8.81,1.8,1.8s-.81,1.8-1.8,1.8-1.8-.81-1.8-1.8.81-1.8,1.8-1.8Z"/>
            <circle class="st16" cx="66.15" cy="76.23" r=".63"/>
            <circle class="st16" cx="98.79" cy="36.14" r=".63"/>
            <path class="st16" d="M38.56,59.04c0-.17.14-.31.31-.31s.31.14.31.31-.14.31-.31.31-.31-.14-.31-.31Z"/>
            <circle class="st16" cx="38.56" cy="92.61" r=".31"/>
            <circle class="st16" cx="48.48" cy="114.47" r=".31"/>
            <circle class="st16" cx="69.09" cy="76.86" r=".31"/>
            <path class="st16" d="M47.85,34.25c0-.17.14-.31.31-.31s.31.14.31.31-.14.31-.31.31-.31-.14-.31-.31Z"/>
            <circle class="st16" cx="54.84" cy="85.47" r=".31"/>
            <circle class="st16" cx="22.29" cy="72.44" r=".31"/>
            <path class="st16" d="M245.61,403.99c.69,0,1.26.56,1.26,1.26s-.56,1.26-1.26,1.26-1.26-.56-1.26-1.26.56-1.26,1.26-1.26Z"/>
            <path class="st16" d="M273.03,447.33c.69,0,1.26.56,1.26,1.26s-.56,1.26-1.26,1.26-1.26-.56-1.26-1.26.56-1.26,1.26-1.26Z"/>
            <path class="st16" d="M292.33,480.42c.69,0,1.26.56,1.26,1.26s-.56,1.26-1.26,1.26-1.26-.56-1.26-1.26.56-1.26,1.26-1.26Z"/>
            <path class="st16" d="M284.16,386.64c0,1-.81,1.8-1.8,1.8s-1.8-.81-1.8-1.8.81-1.8,1.8-1.8,1.8.81,1.8,1.8Z"/>
            <circle class="st16" cx="156.06" cy="354.05" r="1.8"/>
            <circle class="st16" cx="255.51" cy="436.85" r="1.8"/>
            <path class="st16" d="M282.27,427.13c.35,0,.63.28.63.63s-.28.63-.63.63-.63-.28-.63-.63.28-.63.63-.63Z"/>
            <circle class="st16" cx="299.47" cy="400.48" r=".31"/>
            <circle class="st16" cx="317" cy="354.36" r=".31"/>
            <path class="st16" d="M265.9,399.86c.17,0,.31.14.31.31s-.14.31-.31.31-.31-.14-.31-.31.14-.31.31-.31Z"/>
            <circle class="st16" cx="244.04" cy="410.09" r=".31"/>
            <circle class="st16" cx="281.65" cy="430.69" r=".31"/>
            <path class="st16" d="M273.03,416.13c.17,0,.31.14.31.31s-.14.31-.31.31-.31-.14-.31-.31.14-.31.31-.31Z"/>
            <path class="st16" d="M286.07,383.58c.17,0,.31.14.31.31s-.14.31-.31.31-.31-.14-.31-.31.14-.31.31-.31Z"/>
            <path class="st16" d="M96.76,468.51c-.49-.49-.49-1.29,0-1.78s1.29-.49,1.78,0c.49.49.49,1.29,0,1.78-.49.49-1.29.49-1.78,0Z"/>
            <path class="st16" d="M205.1,542.46c-.49-.49-.49-1.29,0-1.78.49-.49,1.29-.49,1.78,0,.49.49.49,1.29,0,1.78s-1.29.49-1.78,0Z"/>
            <path class="st16" d="M108.01,418.47c-.49-.49-.49-1.29,0-1.78.49-.49,1.29-.49,1.78,0,.49.49.49,1.29,0,1.78-.49.49-1.29.49-1.78,0Z"/>
            <path class="st16" d="M117.76,381.43c-.49-.49-.49-1.29,0-1.78.49-.49,1.29-.49,1.78,0,.49.49.49,1.29,0,1.78-.49.49-1.29.49-1.78,0Z"/>
            <path class="st16" d="M57.23,453.52c.7-.7,1.84-.7,2.55,0s.7,1.84,0,2.55c-.7.7-1.84.7-2.55,0-.7-.7-.7-1.84,0-2.55Z"/>
            <path class="st16" d="M111.71,437c.7-.7,1.84-.7,2.55,0,.7.7.7,1.84,0,2.55s-1.84.7-2.55,0-.7-1.84,0-2.55Z"/>
            <path class="st16" d="M87.19,426.22c-.25-.25-.25-.64,0-.89s.64-.25.89,0c.25.25.25.64,0,.89-.25.25-.64.25-.89,0Z"/>
            <path class="st16" d="M81.91,374.79c-.25-.25-.25-.64,0-.89.25-.25.64-.25.89,0,.25.25.25.64,0,.89-.25.25-.64.25-.89,0Z"/>
            <circle class="st16" cx="56.19" cy="432.9" r=".31"/>
            <path class="st16" d="M79.49,457.09c-.12-.12-.12-.32,0-.44.12-.12.32-.12.44,0,.12.12.12.32,0,.44s-.32.12-.44,0Z"/>
            <path class="st16" d="M101.96,465.53c-.12-.12-.12-.32,0-.44.12-.12.32-.12.44,0s.12.32,0,.44-.32.12-.44,0Z"/>
            <path class="st16" d="M89.93,424.37c-.12-.12-.12-.32,0-.44.12-.12.32-.12.44,0s.12.32,0,.44-.32.12-.44,0Z"/>
            <path class="st16" d="M45.01,409.03c-.12-.12-.12-.32,0-.44.12-.12.32-.12.44,0s.12.32,0,.44c-.12.12-.32.12-.44,0Z"/>
            <path class="st16" d="M85.95,440.53c-.12-.12-.12-.32,0-.44.12-.12.32-.12.44,0,.12.12.12.32,0,.44-.12.12-.32.12-.44,0Z"/>
            <path class="st16" d="M53.71,454.33c-.12-.12-.12-.32,0-.44s.32-.12.44,0,.12.32,0,.44c-.12.12-.32.12-.44,0Z"/>
            <path class="st16" d="M853.17,154.18c.51.51.51,1.34,0,1.84-.51.51-1.33.51-1.84,0-.51-.51-.51-1.34,0-1.84.51-.51,1.33-.51,1.84,0Z"/>
            <path class="st16" d="M841.5,206.07c.51.51.51,1.34,0,1.84s-1.33.51-1.84,0c-.51-.51-.51-1.33,0-1.84s1.33-.51,1.84,0Z"/>
            <path class="st16" d="M831.39,244.48c.51.51.51,1.34,0,1.84-.51.51-1.33.51-1.84,0-.51-.51-.51-1.33,0-1.84.51-.51,1.33-.51,1.84,0Z"/>
            <path class="st16" d="M894.16,169.73c-.73.73-1.91.73-2.64,0s-.73-1.91,0-2.64,1.91-.73,2.64,0c.73.73.73,1.91,0,2.64Z"/>
            <path class="st16" d="M825.45,53.23c-.73.73-1.91.73-2.64,0s-.73-1.91,0-2.64,1.91-.73,2.64,0c.73.73.73,1.91,0,2.64Z"/>
            <path class="st16" d="M837.66,186.86c-.73.73-1.91.73-2.64,0-.73-.73-.73-1.91,0-2.64.73-.73,1.91-.73,2.64,0s.73,1.91,0,2.64Z"/>
            <path class="st16" d="M863.08,198.03c.25.25.25.67,0,.92-.25.25-.67.25-.92,0s-.25-.67,0-.92.67-.25.92,0Z"/>
            <path class="st16" d="M895.46,190.87c.13.13.13.33,0,.46s-.33.13-.46,0c-.13-.13-.13-.33,0-.46.13-.13.33-.13.46,0Z"/>
            <path class="st16" d="M942.13,169.91c.13.13.13.33,0,.46s-.33.13-.46,0c-.13-.13-.13-.33,0-.46.13-.13.33-.13.46,0Z"/>
            <path class="st16" d="M871.08,166.03c.13.13.13.33,0,.46s-.33.13-.46,0-.13-.33,0-.46c.13-.13.33-.13.46,0Z"/>
            <path class="st16" d="M847.77,157.27c.13.13.13.33,0,.46-.13.13-.33.13-.46,0-.13-.13-.13-.33,0-.46s.33-.13.46,0Z"/>
            <path class="st16" d="M860.24,199.95c.13.13.13.33,0,.46s-.33.13-.46,0c-.13-.13-.13-.33,0-.46.13-.13.33-.13.46,0Z"/>
            <path class="st16" d="M864.37,183.19c.13.13.13.33,0,.46-.13.13-.33.13-.46,0-.13-.13-.13-.33,0-.46.13-.13.33-.13.46,0Z"/>
            <path class="st16" d="M897.8,168.88c.13.13.13.33,0,.46-.13.13-.33.13-.46,0-.13-.13-.13-.33,0-.46s.33-.13.46,0Z"/>
            <path class="st16" d="M511.04,164.56c.51.51.51,1.34,0,1.84-.51.51-1.33.51-1.84,0-.51-.51-.51-1.34,0-1.84.51-.51,1.33-.51,1.84,0Z"/>
            <path class="st16" d="M499.37,216.45c.51.51.51,1.34,0,1.84-.51.51-1.33.51-1.84,0-.51-.51-.51-1.33,0-1.84.51-.51,1.33-.51,1.84,0Z"/>
            <path class="st16" d="M552.03,180.11c-.73.73-1.91.73-2.64,0-.73-.73-.73-1.91,0-2.64.73-.73,1.91-.73,2.64,0s.73,1.91,0,2.64Z"/>
            <path class="st16" d="M495.53,197.24c-.73.73-1.91.73-2.64,0-.73-.73-.73-1.91,0-2.64.73-.73,1.91-.73,2.64,0,.73.73.73,1.91,0,2.64Z"/>
            <path class="st16" d="M520.96,208.41c.25.25.25.67,0,.92s-.67.25-.92,0c-.25-.25-.25-.67,0-.92.25-.25.67-.25.92,0Z"/>
            <path class="st16" d="M553.33,201.25c.13.13.13.33,0,.46-.13.13-.33.13-.46,0s-.13-.33,0-.46.33-.13.46,0Z"/>
            <path class="st16" d="M600.01,180.29c.13.13.13.33,0,.46-.13.13-.33.13-.46,0-.13-.13-.13-.33,0-.46s.33-.13.46,0Z"/>
            <path class="st16" d="M528.95,176.41c.13.13.13.33,0,.46s-.33.13-.46,0c-.13-.13-.13-.33,0-.46s.33-.13.46,0Z"/>
            <path class="st16" d="M505.65,167.65c.13.13.13.33,0,.46-.13.13-.33.13-.46,0-.13-.13-.13-.33,0-.46.13-.13.33-.13.46,0Z"/>
            <path class="st16" d="M518.12,210.33c.13.13.13.33,0,.46-.13.13-.33.13-.46,0s-.13-.33,0-.46.33-.13.46,0Z"/>
            <path class="st16" d="M522.25,193.57c.13.13.13.33,0,.46-.13.13-.33.13-.46,0s-.13-.33,0-.46c.13-.13.33-.13.46,0Z"/>
            <path class="st16" d="M555.67,179.26c.13.13.13.33,0,.46s-.33.13-.46,0c-.13-.13-.13-.33,0-.46s.33-.13.46,0Z"/>
            <path class="st16" d="M491.01,281.88c.51.51.51,1.33,0,1.84-.51.51-1.33.51-1.84,0s-.51-1.33,0-1.84c.51-.51,1.33-.51,1.84,0Z"/>
            <path class="st16" d="M479.34,333.76c.51.51.51,1.33,0,1.84-.51.51-1.33.51-1.84,0-.51-.51-.51-1.33,0-1.84.51-.51,1.33-.51,1.84,0Z"/>
            <circle class="st16" cx="530.68" cy="296.1" r="1.87"/>
            <circle class="st16" cx="474.18" cy="313.23" r="1.87"/>
            <path class="st16" d="M500.93,325.73c.25.25.25.67,0,.92s-.67.25-.92,0-.25-.67,0-.92c.25-.25.67-.25.92,0Z"/>
            <path class="st16" d="M533.3,318.57c.13.13.13.33,0,.46s-.33.13-.46,0c-.13-.13-.13-.33,0-.46s.33-.13.46,0Z"/>
            <path class="st16" d="M579.98,297.61c.13.13.13.33,0,.46-.13.13-.33.13-.46,0-.13-.13-.13-.33,0-.46.13-.13.33-.13.46,0Z"/>
            <path class="st16" d="M508.92,293.72c.13.13.13.33,0,.46-.13.13-.33.13-.46,0-.13-.13-.13-.33,0-.46s.33-.13.46,0Z"/>
            <circle class="st16" cx="485.39" cy="285.19" r=".33"/>
            <path class="st16" d="M498.09,327.65c.13.13.13.33,0,.46s-.33.13-.46,0c-.13-.13-.13-.33,0-.46s.33-.13.46,0Z"/>
            <path class="st16" d="M502.22,310.89c.13.13.13.33,0,.46s-.33.13-.46,0c-.13-.13-.13-.33,0-.46.13-.13.33-.13.46,0Z"/>
            <path class="st16" d="M535.64,296.58c.13.13.13.33,0,.46-.13.13-.33.13-.46,0-.13-.13-.13-.33,0-.46s.33-.13.46,0Z"/>
            <path class="st16" d="M415.22,218.83c-.72,0-1.3-.58-1.3-1.3s.58-1.3,1.3-1.3,1.3.58,1.3,1.3-.58,1.3-1.3,1.3Z"/>
            <path class="st16" d="M386.78,173.89c-.72,0-1.3-.58-1.3-1.3s.58-1.3,1.3-1.3,1.3.58,1.3,1.3-.58,1.3-1.3,1.3Z"/>
            <circle class="st16" cx="377.11" cy="236.82" r="1.87"/>
            <path class="st16" d="M403.08,184.76c0-1.03.84-1.87,1.87-1.87s1.87.84,1.87,1.87-.84,1.87-1.87,1.87-1.87-.84-1.87-1.87Z"/>
            <path class="st16" d="M377.2,194.84c-.36,0-.65-.29-.65-.65s.29-.65.65-.65.65.29.65.65-.29.65-.65.65Z"/>
            <path class="st16" d="M359.37,222.79c-.18,0-.33-.15-.33-.33s.15-.33.33-.33.33.15.33.33-.15.33-.33.33Z"/>
            <path class="st16" d="M341.19,270.62c-.18,0-.33-.15-.33-.33s.15-.33.33-.33.33.15.33.33-.15.33-.33.33Z"/>
            <circle class="st16" cx="394.18" cy="222.79" r=".33"/>
            <path class="st16" d="M416.85,212.84c-.18,0-.33-.15-.33-.33s.15-.33.33-.33.33.15.33.33-.15.33-.33.33Z"/>
            <path class="st16" d="M377.85,191.47c-.18,0-.33-.15-.33-.33s.15-.33.33-.33.33.15.33.33-.15.33-.33.33Z"/>
            <path class="st16" d="M386.78,206.24c-.18,0-.33-.15-.33-.33s.15-.33.33-.33.33.15.33.33-.15.33-.33.33Z"/>
            <path class="st16" d="M373.26,240c-.18,0-.33-.15-.33-.33s.15-.33.33-.33.33.15.33.33-.15.33-.33.33Z"/>
            <path class="st16" d="M923.9,478.3c-.72,0-1.3-.58-1.3-1.3s.58-1.3,1.3-1.3,1.3.58,1.3,1.3-.58,1.3-1.3,1.3Z"/>
            <path class="st16" d="M895.46,433.36c-.72,0-1.3-.58-1.3-1.3s.58-1.3,1.3-1.3,1.3.58,1.3,1.3-.58,1.3-1.3,1.3Z"/>
            <path class="st16" d="M883.92,496.29c0-1.03.84-1.87,1.87-1.87s1.87.84,1.87,1.87-.84,1.87-1.87,1.87-1.87-.84-1.87-1.87Z"/>
            <path class="st16" d="M911.76,444.23c0-1.03.84-1.87,1.87-1.87s1.87.84,1.87,1.87-.84,1.87-1.87,1.87-1.87-.84-1.87-1.87Z"/>
            <path class="st16" d="M885.88,454.3c-.36,0-.65-.29-.65-.65s.29-.65.65-.65.65.29.65.65-.29.65-.65.65Z"/>
            <circle class="st16" cx="868.05" cy="481.93" r=".33"/>
            <circle class="st16" cx="849.87" cy="529.76" r=".33"/>
            <circle class="st16" cx="902.86" cy="482.26" r=".33"/>
            <path class="st16" d="M925.53,472.3c-.18,0-.33-.15-.33-.33s.15-.33.33-.33.33.15.33.33-.15.33-.33.33Z"/>
            <path class="st16" d="M886.53,450.94c-.18,0-.33-.15-.33-.33s.15-.33.33-.33.33.15.33.33-.15.33-.33.33Z"/>
            <path class="st16" d="M895.46,465.71c-.18,0-.33-.15-.33-.33s.15-.33.33-.33.33.15.33.33-.15.33-.33.33Z"/>
            <path class="st16" d="M881.94,499.46c-.18,0-.33-.15-.33-.33s.15-.33.33-.33.33.15.33.33-.15.33-.33.33Z"/>
            <path class="st16" d="M696.72,92.35c0-.72.58-1.3,1.3-1.3s1.3.58,1.3,1.3-.58,1.3-1.3,1.3-1.3-.58-1.3-1.3Z"/>
            <path class="st16" d="M721.94,226.02c0-.72.58-1.3,1.3-1.3s1.3.58,1.3,1.3-.58,1.3-1.3,1.3-1.3-.58-1.3-1.3Z"/>
            <path class="st16" d="M741.66,63.91c0-.72.58-1.3,1.3-1.3s1.3.58,1.3,1.3-.58,1.3-1.3,1.3-1.3-.58-1.3-1.3Z"/>
            <circle class="st16" cx="777.27" cy="43.9" r="1.3"/>
            <circle class="st16" cx="678.73" cy="54.24" r="1.87"/>
            <path class="st16" d="M730.79,80.21c1.03,0,1.87.84,1.87,1.87s-.84,1.87-1.87,1.87-1.87-.84-1.87-1.87.84-1.87,1.87-1.87Z"/>
            <path class="st16" d="M720.71,54.33c0-.36.29-.65.65-.65s.65.29.65.65-.29.65-.65.65-.65-.29-.65-.65Z"/>
            <path class="st16" d="M754.55,12.75c0-.36.29-.65.65-.65s.65.29.65.65-.29.65-.65.65-.65-.29-.65-.65Z"/>
            <circle class="st16" cx="693.08" cy="36.5" r=".33"/>
            <circle class="st16" cx="692.76" cy="71.31" r=".33"/>
            <path class="st16" d="M702.71,93.98c0-.18.15-.33.33-.33s.33.15.33.33-.15.33-.33.33-.33-.15-.33-.33Z"/>
            <path class="st16" d="M724.08,54.98c0-.18.15-.33.33-.33s.33.15.33.33-.15.33-.33.33-.33-.15-.33-.33Z"/>
            <circle class="st16" cx="702.71" cy="10.79" r=".33"/>
            <path class="st16" d="M709.31,63.91c0-.18.15-.33.33-.33s.33.15.33.33-.15.33-.33.33-.33-.15-.33-.33Z"/>
            <path class="st16" d="M675.55,50.39c0-.18.15-.33.33-.33s.33.15.33.33-.15.33-.33.33-.33-.15-.33-.33Z"/>
            <path class="st16" d="M206.45,379.22c0-.92.75-1.67,1.67-1.67s1.67.75,1.67,1.67-.75,1.67-1.67,1.67-1.67-.75-1.67-1.67Z"/>
            <path class="st16" d="M263.84,342.9c0-.92.75-1.67,1.67-1.67s1.67.75,1.67,1.67-.75,1.67-1.67,1.67-1.67-.75-1.67-1.67Z"/>
            <circle class="st16" cx="309.31" cy="317.35" r="1.67"/>
            <path class="st16" d="M183.48,328.17c1.32,0,2.39,1.07,2.39,2.39s-1.07,2.39-2.39,2.39-2.39-1.07-2.39-2.39,1.07-2.39,2.39-2.39Z"/>
            <path class="st16" d="M249.96,363.71c1.32,0,2.39,1.07,2.39,2.39s-1.07,2.39-2.39,2.39-2.39-1.07-2.39-2.39,1.07-2.39,2.39-2.39Z"/>
            <circle class="st16" cx="237.93" cy="330.67" r=".83"/>
            <path class="st16" d="M280.3,277.58c0-.46.37-.83.83-.83s.83.37.83.83-.37.83-.83.83-.83-.37-.83-.83Z"/>
            <circle class="st16" cx="201.81" cy="307.9" r=".42"/>
            <circle class="st16" cx="140.74" cy="284.68" r=".42"/>
            <circle class="st16" cx="201.39" cy="352.35" r=".42"/>
            <circle class="st16" cx="214.52" cy="381.3" r=".42"/>
            <circle class="st16" cx="241.81" cy="331.5" r=".42"/>
            <circle class="st16" cx="214.11" cy="275.08" r=".42"/>
            <circle class="st16" cx="222.95" cy="342.9" r=".42"/>
            <path class="st16" d="M395.26,430.79c-.65.65-1.7.65-2.35,0-.65-.65-.65-1.7,0-2.36s1.7-.65,2.35,0c.65.65.65,1.7,0,2.36Z"/>
            <path class="st16" d="M419.79,425.89c-.93-.93-.93-2.44,0-3.37.93-.93,2.44-.93,3.37,0,.93.93.93,2.44,0,3.37s-2.44.93-3.37,0Z"/>
            <path class="st16" d="M405.52,458.36c-.33.33-.85.33-1.18,0-.33-.33-.33-.85,0-1.18.33-.33.85-.33,1.18,0,.33.33.33.85,0,1.18Z"/>
            <path class="st16" d="M403.07,454.73c-.16.16-.43.16-.59,0-.16-.16-.16-.43,0-.59.16-.16.43-.16.59,0,.16.16.16.43,0,.59Z"/>
            <path class="st16" d="M424.47,460c-.16.16-.43.16-.59,0-.16-.16-.16-.43,0-.59.16-.16.43-.16.59,0,.16.16.16.43,0,.59Z"/>
            <path class="st16" d="M434.49,317.81c0,.69-.56,1.26-1.26,1.26s-1.26-.56-1.26-1.26.56-1.26,1.26-1.26,1.26.56,1.26,1.26Z"/>
            <path class="st16" d="M391.15,345.24c0,.69-.56,1.26-1.26,1.26s-1.26-.56-1.26-1.26.56-1.26,1.26-1.26,1.26.56,1.26,1.26Z"/>
            <path class="st16" d="M289.77,442.89c0,.69-.56,1.26-1.26,1.26s-1.26-.56-1.26-1.26.56-1.26,1.26-1.26,1.26.56,1.26,1.26Z"/>
            <path class="st16" d="M358.07,364.53c0,.69-.56,1.26-1.26,1.26s-1.26-.56-1.26-1.26.56-1.26,1.26-1.26,1.26.56,1.26,1.26Z"/>
            <path class="st16" d="M451.84,356.36c-1,0-1.8-.81-1.8-1.8s.81-1.8,1.8-1.8,1.8.81,1.8,1.8-.81,1.8-1.8,1.8Z"/>
            <path class="st16" d="M484.43,230.06c-1,0-1.8-.81-1.8-1.8s.81-1.8,1.8-1.8,1.8.81,1.8,1.8-.81,1.8-1.8,1.8Z"/>
            <circle class="st16" cx="401.63" cy="327.71" r="1.8"/>
            <circle class="st16" cx="211.31" cy="293.78" r="1.8"/>
            <circle class="st16" cx="636.22" cy="439.83" r="1.8"/>
            <path class="st16" d="M411.35,354.48c0,.35-.28.63-.63.63s-.63-.28-.63-.63.28-.63.63-.63.63.28.63.63Z"/>
            <circle class="st16" cx="278.64" cy="213.7" r=".63"/>
            <circle class="st16" cx="378.09" cy="394.57" r=".63"/>
            <path class="st16" d="M438.31,371.67c0,.17-.14.31-.31.31s-.31-.14-.31-.31.14-.31.31-.31.31.14.31.31Z"/>
            <path class="st16" d="M484.43,389.2c0,.17-.14.31-.31.31s-.31-.14-.31-.31.14-.31.31-.31.31.14.31.31Z"/>
            <circle class="st16" cx="438.31" cy="338.1" r=".31"/>
            <circle class="st16" cx="428.4" cy="316.24" r=".31"/>
            <circle class="st16" cx="407.79" cy="353.85" r=".31"/>
            <path class="st16" d="M429.02,396.46c0,.17-.14.31-.31.31s-.31-.14-.31-.31.14-.31.31-.31.31.14.31.31Z"/>
            <circle class="st16" cx="659.3" cy="420.96" r=".63"/>
            <path class="st16" d="M686.89,438.15c0,.17-.14.31-.31.31s-.31-.14-.31-.31.14-.31.31-.31.31.14.31.31Z"/>
            <circle class="st16" cx="656.37" cy="420.33" r=".31"/>
            <path class="st16" d="M422.35,345.24c0,.17-.14.31-.31.31s-.31-.14-.31-.31.14-.31.31-.31.31.14.31.31Z"/>
            <circle class="st16" cx="454.59" cy="358.27" r=".31"/>
            <path class="st16" d="M369.97,168.96c.49-.49,1.29-.49,1.78,0,.49.49.49,1.29,0,1.78s-1.29.49-1.78,0c-.49-.49-.49-1.29,0-1.78Z"/>
            <path class="st16" d="M296.02,277.31c.49-.49,1.29-.49,1.78,0,.49.49.49,1.29,0,1.78-.49.49-1.29.49-1.78,0-.49-.49-.49-1.29,0-1.78Z"/>
            <path class="st16" d="M420.01,180.21c.49-.49,1.29-.49,1.78,0,.49.49.49,1.29,0,1.78-.49.49-1.29.49-1.78,0s-.49-1.29,0-1.78Z"/>
            <path class="st16" d="M457.05,189.96c.49-.49,1.29-.49,1.78,0,.49.49.49,1.29,0,1.78-.49.49-1.29.49-1.78,0-.49-.49-.49-1.29,0-1.78Z"/>
            <path class="st16" d="M384.96,129.43c.7.7.7,1.84,0,2.55s-1.84.7-2.55,0c-.7-.7-.7-1.84,0-2.55.7-.7,1.84-.7,2.55,0Z"/>
            <path class="st16" d="M401.48,183.91c.7.7.7,1.84,0,2.55s-1.84.7-2.55,0c-.7-.7-.7-1.84,0-2.55.7-.7,1.84-.7,2.55,0Z"/>
            <circle class="st16" cx="647.24" cy="200.87" r="1.8"/>
            <path class="st16" d="M412.26,159.4c.25-.25.64-.25.89,0,.25.25.25.64,0,.89s-.64.25-.89,0-.25-.64,0-.89Z"/>
            <path class="st16" d="M463.69,154.12c.25-.25.64-.25.89,0,.25.25.25.64,0,.89s-.64.25-.89,0c-.25-.25-.25-.64,0-.89Z"/>
            <path class="st16" d="M405.36,128.17c.12-.12.32-.12.44,0,.12.12.12.32,0,.44-.12.12-.32.12-.44,0s-.12-.32,0-.44Z"/>
            <path class="st16" d="M385.14,83.16c.12-.12.32-.12.44,0s.12.32,0,.44c-.12.12-.32.12-.44,0s-.12-.32,0-.44Z"/>
            <path class="st16" d="M381.4,151.69c.12-.12.32-.12.44,0,.12.12.12.32,0,.44s-.32.12-.44,0c-.12-.12-.12-.32,0-.44Z"/>
            <path class="st16" d="M372.95,174.16c.12-.12.32-.12.44,0,.12.12.12.32,0,.44-.12.12-.32.12-.44,0s-.12-.32,0-.44Z"/>
            <circle class="st16" cx="414.33" cy="162.36" r=".31"/>
            <circle class="st16" cx="429.67" cy="117.43" r=".31"/>
            <path class="st16" d="M397.95,158.15c.12-.12.32-.12.44,0,.12.12.12.32,0,.44-.12.12-.32.12-.44,0s-.12-.32,0-.44Z"/>
            <path class="st16" d="M384.15,125.92c.12-.12.32-.12.44,0s.12.32,0,.44c-.12.12-.32.12-.44,0-.12-.12-.12-.32,0-.44Z"/>
            <path class="st16" d="M245.84,431.5c-.51-.51-.51-1.33,0-1.84.51-.51,1.33-.51,1.84,0,.51.51.51,1.33,0,1.84-.51.51-1.33.51-1.84,0Z"/>
            <path class="st16" d="M257.51,379.61c-.51-.51-.51-1.33,0-1.84.51-.51,1.33-.51,1.84,0,.51.51.51,1.33,0,1.84-.51.51-1.33.51-1.84,0Z"/>
            <path class="st16" d="M267.62,341.2c-.51-.51-.51-1.33,0-1.84.51-.51,1.33-.51,1.84,0,.51.51.51,1.33,0,1.84-.51.51-1.33.51-1.84,0Z"/>
            <circle class="st16" cx="206.17" cy="417.28" r="1.87"/>
            <circle class="st16" cx="262.67" cy="400.15" r="1.87"/>
            <path class="st16" d="M235.92,387.65c-.25-.25-.25-.67,0-.92.25-.25.67-.25.92,0,.25.25.25.67,0,.92-.25.25-.67.25-.92,0Z"/>
            <path class="st16" d="M203.55,394.81c-.13-.13-.13-.33,0-.46.13-.13.33-.13.46,0s.13.33,0,.46-.33.13-.46,0Z"/>
            <path class="st16" d="M156.87,415.77c-.13-.13-.13-.33,0-.46.13-.13.33-.13.46,0,.13.13.13.33,0,.46s-.33.13-.46,0Z"/>
            <path class="st16" d="M227.93,419.65c-.13-.13-.13-.33,0-.46s.33-.13.46,0c.13.13.13.33,0,.46s-.33.13-.46,0Z"/>
            <path class="st16" d="M251.23,428.41c-.13-.13-.13-.33,0-.46.13-.13.33-.13.46,0,.13.13.13.33,0,.46-.13.13-.33.13-.46,0Z"/>
            <path class="st16" d="M238.76,385.73c-.13-.13-.13-.33,0-.46.13-.13.33-.13.46,0s.13.33,0,.46-.33.13-.46,0Z"/>
            <path class="st16" d="M234.63,402.49c-.13-.13-.13-.33,0-.46.13-.13.33-.13.46,0s.13.33,0,.46c-.13.13-.33.13-.46,0Z"/>
            <path class="st16" d="M201.21,416.8c-.13-.13-.13-.33,0-.46s.33-.13.46,0c.13.13.13.33,0,.46-.13.13-.33.13-.46,0Z"/>
            <path class="st16" d="M587.97,421.12c-.51-.51-.51-1.33,0-1.84.51-.51,1.33-.51,1.84,0,.51.51.51,1.34,0,1.84s-1.33.51-1.84,0Z"/>
            <path class="st16" d="M599.64,369.23c-.51-.51-.51-1.33,0-1.84.51-.51,1.33-.51,1.84,0s.51,1.33,0,1.84c-.51.51-1.33.51-1.84,0Z"/>
            <circle class="st16" cx="548.3" cy="406.9" r="1.87"/>
            <circle class="st16" cx="604.79" cy="389.77" r="1.87"/>
            <path class="st16" d="M578.05,377.27c-.25-.25-.25-.67,0-.92.25-.25.67-.25.92,0,.25.25.25.67,0,.92s-.67.25-.92,0Z"/>
            <path class="st16" d="M545.67,384.43c-.13-.13-.13-.33,0-.46.13-.13.33-.13.46,0,.13.13.13.33,0,.46s-.33.13-.46,0Z"/>
            <path class="st16" d="M499,405.39c-.13-.13-.13-.33,0-.46.13-.13.33-.13.46,0,.13.13.13.33,0,.46-.13.13-.33.13-.46,0Z"/>
            <path class="st16" d="M570.06,409.27c-.13-.13-.13-.33,0-.46.13-.13.33-.13.46,0s.13.33,0,.46-.33.13-.46,0Z"/>
            <path class="st16" d="M593.36,418.03c-.13-.13-.13-.33,0-.46.13-.13.33-.13.46,0s.13.33,0,.46c-.13.13-.33.13-.46,0Z"/>
            <path class="st16" d="M580.89,375.35c-.13-.13-.13-.33,0-.46.13-.13.33-.13.46,0,.13.13.13.33,0,.46s-.33.13-.46,0Z"/>
            <path class="st16" d="M576.76,392.11c-.13-.13-.13-.33,0-.46.13-.13.33-.13.46,0s.13.33,0,.46c-.13.13-.33.13-.46,0Z"/>
            <path class="st16" d="M543.33,406.42c-.13-.13-.13-.33,0-.46.13-.13.33-.13.46,0,.13.13.13.33,0,.46-.13.13-.33.13-.46,0Z"/>
            <path class="st16" d="M608,303.8c-.51-.51-.51-1.34,0-1.84s1.33-.51,1.84,0c.51.51.51,1.34,0,1.84-.51.51-1.33.51-1.84,0Z"/>
            <path class="st16" d="M619.67,251.92c-.51-.51-.51-1.34,0-1.84.51-.51,1.33-.51,1.84,0s.51,1.34,0,1.84c-.51.51-1.33.51-1.84,0Z"/>
            <circle class="st16" cx="568.33" cy="289.58" r="1.87"/>
            <path class="st16" d="M623.5,271.13c.73-.73,1.91-.73,2.64,0,.73.73.73,1.91,0,2.64-.73.73-1.91.73-2.64,0-.73-.73-.73-1.91,0-2.64Z"/>
            <path class="st16" d="M598.08,259.95c-.25-.25-.25-.67,0-.92.25-.25.67-.25.92,0,.25.25.25.67,0,.92-.25.25-.67.25-.92,0Z"/>
            <path class="st16" d="M565.7,267.11c-.13-.13-.13-.33,0-.46.13-.13.33-.13.46,0s.13.33,0,.46c-.13.13-.33.13-.46,0Z"/>
            <circle class="st16" cx="519.26" cy="287.84" r=".33"/>
            <path class="st16" d="M590.09,291.96c-.13-.13-.13-.33,0-.46s.33-.13.46,0,.13.33,0,.46c-.13.13-.33.13-.46,0Z"/>
            <path class="st16" d="M613.39,300.72c-.13-.13-.13-.33,0-.46.13-.13.33-.13.46,0,.13.13.13.33,0,.46s-.33.13-.46,0Z"/>
            <path class="st16" d="M600.92,258.03c-.13-.13-.13-.33,0-.46.13-.13.33-.13.46,0s.13.33,0,.46c-.13.13-.33.13-.46,0Z"/>
            <path class="st16" d="M596.79,274.79c-.13-.13-.13-.33,0-.46.13-.13.33-.13.46,0s.13.33,0,.46c-.13.13-.33.13-.46,0Z"/>
            <path class="st16" d="M563.36,289.1c-.13-.13-.13-.33,0-.46.13-.13.33-.13.46,0,.13.13.13.33,0,.46-.13.13-.33.13-.46,0Z"/>
            <circle class="st16" cx="683.79" cy="368.16" r="1.3"/>
            <circle class="st16" cx="694.06" cy="400.92" r="1.87"/>
            <circle class="st16" cx="682.16" cy="373.17" r=".33"/>
            <path class="st16" d="M175.11,107.38c.72,0,1.3.58,1.3,1.3s-.58,1.3-1.3,1.3-1.3-.58-1.3-1.3.58-1.3,1.3-1.3Z"/>
            <path class="st16" d="M203.55,152.32c.72,0,1.3.58,1.3,1.3s-.58,1.3-1.3,1.3-1.3-.58-1.3-1.3.58-1.3,1.3-1.3Z"/>
            <circle class="st16" cx="213.22" cy="89.39" r="1.87"/>
            <path class="st16" d="M187.25,141.45c0,1.03-.84,1.87-1.87,1.87s-1.87-.84-1.87-1.87.84-1.87,1.87-1.87,1.87.84,1.87,1.87Z"/>
            <path class="st16" d="M213.13,131.38c.36,0,.65.29.65.65s-.29.65-.65.65-.65-.29-.65-.65.29-.65.65-.65Z"/>
            <path class="st16" d="M230.96,103.42c.18,0,.33.15.33.33s-.15.33-.33.33-.33-.15-.33-.33.15-.33.33-.33Z"/>
            <path class="st16" d="M196.15,103.1c.18,0,.33.15.33.33s-.15.33-.33.33-.33-.15-.33-.33.15-.33.33-.33Z"/>
            <path class="st16" d="M173.48,113.38c.18,0,.33.15.33.33s-.15.33-.33.33-.33-.15-.33-.33.15-.33.33-.33Z"/>
            <path class="st16" d="M212.48,134.74c.18,0,.33.15.33.33s-.15.33-.33.33-.33-.15-.33-.33.15-.33.33-.33Z"/>
            <path class="st16" d="M203.55,119.97c.18,0,.33.15.33.33s-.15.33-.33.33-.33-.15-.33-.33.15-.33.33-.33Z"/>
            <path class="st16" d="M217.07,86.22c.18,0,.33.15.33.33s-.15.33-.33.33-.33-.15-.33-.33.15-.33.33-.33Z"/>
            <path class="st16" d="M377.07,359.67c0,.72-.58,1.3-1.3,1.3s-1.3-.58-1.3-1.3.58-1.3,1.3-1.3,1.3.58,1.3,1.3Z"/>
            <path class="st16" d="M679.21,159.79c.93.93.93,2.44,0,3.37-.93.93-2.44.93-3.37,0s-.93-2.44,0-3.37,2.44-.93,3.37,0Z"/>
            <circle class="st16" cx="694.07" cy="127.91" r=".83"/>
            <path class="st16" d="M695.94,130.95c.16-.16.43-.16.59,0,.16.16.16.43,0,.59-.16.16-.43.16-.59,0-.16-.16-.16-.43,0-.59Z"/>
            <path class="st16" d="M674.54,125.68c.16-.16.43-.16.59,0,.16.16.16.43,0,.59-.16.16-.43.16-.59,0s-.16-.43,0-.59Z"/>
            <circle class="st16" cx="268.79" cy="298.59" r="1.26"/>
            <circle class="st16" cx="225.45" cy="326.02" r="1.26"/>
            <circle class="st16" cx="192.37" cy="345.32" r="1.26"/>
            <circle class="st16" cx="287.4" cy="335.34" r="1.8"/>
            <path class="st16" d="M314.46,478.43c-1,0-1.8-.81-1.8-1.8s.81-1.8,1.8-1.8,1.8.81,1.8,1.8-.81,1.8-1.8,1.8Z"/>
            <circle class="st16" cx="237.2" cy="308.5" r="1.8"/>
            <path class="st16" d="M471.79,422.42c-1,0-1.8-.81-1.8-1.8s.81-1.8,1.8-1.8,1.8.81,1.8,1.8-.81,1.8-1.8,1.8Z"/>
            <circle class="st16" cx="246.28" cy="335.26" r=".63"/>
            <circle class="st16" cx="213.65" cy="375.36" r=".63"/>
            <circle class="st16" cx="273.56" cy="352.45" r=".31"/>
            <circle class="st16" cx="306.02" cy="476.63" r=".31"/>
            <circle class="st16" cx="319.68" cy="369.99" r=".31"/>
            <path class="st16" d="M274.19,318.89c0,.17-.14.31-.31.31s-.31-.14-.31-.31.14-.31.31-.31.31.14.31.31Z"/>
            <circle class="st16" cx="263.96" cy="297.02" r=".31"/>
            <path class="st16" d="M243.67,334.63c0,.17-.14.31-.31.31s-.31-.14-.31-.31.14-.31.31-.31.31.14.31.31Z"/>
            <circle class="st16" cx="655.42" cy="449.73" r="1.26"/>
            <path class="st16" d="M623.59,469.03c0,.69-.56,1.26-1.26,1.26s-1.26-.56-1.26-1.26.56-1.26,1.26-1.26,1.26.56,1.26,1.26Z"/>
            <path class="st16" d="M667.16,434.01c-1,0-1.8-.81-1.8-1.8s.81-1.8,1.8-1.8,1.8.81,1.8,1.8-.81,1.8-1.8,1.8Z"/>
            <circle class="st16" cx="673.32" cy="458.34" r=".31"/>
            <circle class="st16" cx="264.27" cy="377.24" r=".31"/>
            <path class="st16" d="M385.6,470.29c0,.17-.14.31-.31.31s-.31-.14-.31-.31.14-.31.31-.31.31.14.31.31Z"/>
            <path class="st16" d="M495.49,401.74c0,.35-.28.63-.63.63s-.63-.28-.63-.63.28-.63.63-.63.63.28.63.63Z"/>
            <circle class="st16" cx="522.14" cy="418.93" r=".31"/>
            <circle class="st16" cx="491.93" cy="401.11" r=".31"/>
            <circle class="st16" cx="512.85" cy="443.72" r=".31"/>
            <path class="st16" d="M257.91,326.02c0,.17-.14.31-.31.31s-.31-.14-.31-.31.14-.31.31-.31.31.14.31.31Z"/>
            <circle class="st16" cx="290.15" cy="339.06" r=".31"/>
            <path class="st16" d="M741.31,393.94c-.49-.49-.49-1.29,0-1.78.49-.49,1.29-.49,1.78,0,.49.49.49,1.29,0,1.78-.49.49-1.29.49-1.78,0Z"/>
            <path class="st16" d="M752.56,343.9c-.49-.49-.49-1.29,0-1.78.49-.49,1.29-.49,1.78,0,.49.49.49,1.29,0,1.78-.49.49-1.29.49-1.78,0Z"/>
            <path class="st16" d="M762.31,306.85c-.49-.49-.49-1.29,0-1.78.49-.49,1.29-.49,1.78,0s.49,1.29,0,1.78c-.49.49-1.29.49-1.78,0Z"/>
            <path class="st16" d="M701.78,378.94c.7-.7,1.84-.7,2.55,0,.7.7.7,1.84,0,2.55-.7.7-1.84.7-2.55,0-.7-.7-.7-1.84,0-2.55Z"/>
            <path class="st16" d="M756.26,362.42c.7-.7,1.84-.7,2.55,0,.7.7.7,1.84,0,2.55-.7.7-1.84.7-2.55,0-.7-.7-.7-1.84,0-2.55Z"/>
            <path class="st16" d="M731.74,351.65c-.25-.25-.25-.64,0-.89.25-.25.64-.25.89,0,.25.25.25.64,0,.89-.25.25-.64.25-.89,0Z"/>
            <path class="st16" d="M700.52,358.55c-.12-.12-.12-.32,0-.44.12-.12.32-.12.44,0,.12.12.12.32,0,.44s-.32.12-.44,0Z"/>
            <path class="st16" d="M655.51,378.77c-.12-.12-.12-.32,0-.44.12-.12.32-.12.44,0,.12.12.12.32,0,.44s-.32.12-.44,0Z"/>
            <path class="st16" d="M724.04,382.51c-.12-.12-.12-.32,0-.44.12-.12.32-.12.44,0,.12.12.12.32,0,.44s-.32.12-.44,0Z"/>
            <path class="st16" d="M746.51,390.96c-.12-.12-.12-.32,0-.44.12-.12.32-.12.44,0s.12.32,0,.44-.32.12-.44,0Z"/>
            <path class="st16" d="M734.48,349.8c-.12-.12-.12-.32,0-.44.12-.12.32-.12.44,0s.12.32,0,.44-.32.12-.44,0Z"/>
            <path class="st16" d="M730.5,365.96c-.12-.12-.12-.32,0-.44.12-.12.32-.12.44,0s.12.32,0,.44c-.12.12-.32.12-.44,0Z"/>
            <path class="st16" d="M698.26,379.76c-.12-.12-.12-.32,0-.44s.32-.12.44,0c.12.12.12.32,0,.44-.12.12-.32.12-.44,0Z"/>
            <path class="st16" d="M423.53,401.9c-.51-.51-.51-1.33,0-1.84.51-.51,1.33-.51,1.84,0,.51.51.51,1.34,0,1.84s-1.33.51-1.84,0Z"/>
            <path class="st16" d="M435.2,350.02c-.51-.51-.51-1.34,0-1.84.51-.51,1.33-.51,1.84,0s.51,1.34,0,1.84c-.51.51-1.33.51-1.84,0Z"/>
            <circle class="st16" cx="383.86" cy="387.68" r="1.87"/>
            <circle class="st16" cx="440.36" cy="370.55" r="1.87"/>
            <path class="st16" d="M413.61,358.05c-.25-.25-.25-.67,0-.92s.67-.25.92,0c.25.25.25.67,0,.92s-.67.25-.92,0Z"/>
            <path class="st16" d="M381.23,365.21c-.13-.13-.13-.33,0-.46.13-.13.33-.13.46,0s.13.33,0,.46c-.13.13-.33.13-.46,0Z"/>
            <path class="st16" d="M334.56,386.17c-.13-.13-.13-.33,0-.46.13-.13.33-.13.46,0s.13.33,0,.46-.33.13-.46,0Z"/>
            <path class="st16" d="M405.62,390.06c-.13-.13-.13-.33,0-.46s.33-.13.46,0c.13.13.13.33,0,.46-.13.13-.33.13-.46,0Z"/>
            <path class="st16" d="M428.92,398.82c-.13-.13-.13-.33,0-.46s.33-.13.46,0c.13.13.13.33,0,.46-.13.13-.33.13-.46,0Z"/>
            <path class="st16" d="M416.45,356.13c-.13-.13-.13-.33,0-.46.13-.13.33-.13.46,0s.13.33,0,.46c-.13.13-.33.13-.46,0Z"/>
            <path class="st16" d="M412.32,372.89c-.13-.13-.13-.33,0-.46.13-.13.33-.13.46,0,.13.13.13.33,0,.46-.13.13-.33.13-.46,0Z"/>
            <path class="st16" d="M378.89,387.2c-.13-.13-.13-.33,0-.46.13-.13.33-.13.46,0s.13.33,0,.46c-.13.13-.33.13-.46,0Z"/>
            <path class="st16" d="M443.56,284.59c-.51-.51-.51-1.33,0-1.84s1.33-.51,1.84,0c.51.51.51,1.33,0,1.84s-1.33.51-1.84,0Z"/>
            <circle class="st16" cx="403.89" cy="270.37" r="1.87"/>
            <path class="st16" d="M425.65,272.74c-.13-.13-.13-.33,0-.46.13-.13.33-.13.46,0,.13.13.13.33,0,.46-.13.13-.33.13-.46,0Z"/>
            <path class="st16" d="M448.95,281.5c-.13-.13-.13-.33,0-.46s.33-.13.46,0c.13.13.13.33,0,.46s-.33.13-.46,0Z"/>
            <path class="st16" d="M519.35,347.64c.72,0,1.3.58,1.3,1.3s-.58,1.3-1.3,1.3-1.3-.58-1.3-1.3.58-1.3,1.3-1.3Z"/>
            <path class="st16" d="M547.79,392.58c.72,0,1.3.58,1.3,1.3s-.58,1.3-1.3,1.3-1.3-.58-1.3-1.3.58-1.3,1.3-1.3Z"/>
            <circle class="st16" cx="557.45" cy="329.64" r="1.87"/>
            <path class="st16" d="M531.49,381.7c0,1.03-.84,1.87-1.87,1.87s-1.87-.84-1.87-1.87.84-1.87,1.87-1.87,1.87.84,1.87,1.87Z"/>
            <path class="st16" d="M557.37,371.63c.36,0,.65.29.65.65s-.29.65-.65.65-.65-.29-.65-.65.29-.65.65-.65Z"/>
            <circle class="st16" cx="575.2" cy="344" r=".33"/>
            <path class="st16" d="M593.38,295.85c.18,0,.33.15.33.33s-.15.33-.33.33-.33-.15-.33-.33.15-.33.33-.33Z"/>
            <circle class="st16" cx="540.39" cy="343.67" r=".33"/>
            <path class="st16" d="M517.72,353.63c.18,0,.33.15.33.33s-.15.33-.33.33-.33-.15-.33-.33.15-.33.33-.33Z"/>
            <path class="st16" d="M556.72,375c.18,0,.33.15.33.33s-.15.33-.33.33-.33-.15-.33-.33.15-.33.33-.33Z"/>
            <path class="st16" d="M547.79,360.22c.18,0,.33.15.33.33s-.15.33-.33.33-.33-.15-.33-.33.15-.33.33-.33Z"/>
            <path class="st16" d="M561.3,326.47c.18,0,.33.15.33.33s-.15.33-.33.33-.33-.15-.33-.33.15-.33.33-.33Z"/>
            <circle class="st16" cx="236.54" cy="474.12" r="1.3"/>
            <circle class="st16" cx="211.33" cy="340.45" r="1.3"/>
            <path class="st16" d="M231.85,472.49c0,.18-.15.33-.33.33s-.33-.15-.33-.33.15-.33.33-.33.33.15.33.33Z"/>
            <circle class="st16" cx="653.44" cy="288.89" r=".83"/>
            <circle class="st16" cx="720.46" cy="291.39" r=".42"/>
            <circle class="st16" cx="450.13" cy="338.2" r="1.8"/>
            <path class="st16" d="M723.26,270.88c1,0,1.8.81,1.8,1.8s-.81,1.8-1.8,1.8-1.8-.81-1.8-1.8.81-1.8,1.8-1.8Z"/>
            <path class="st16" d="M655.3,352.76c0-.35.28-.63.63-.63s.63.28.63.63-.28.63-.63.63-.63-.28-.63-.63Z"/>
            <path class="st16" d="M564.6,397.5c-.49.49-1.29.49-1.78,0s-.49-1.29,0-1.78c.49-.49,1.29-.49,1.78,0,.49.49.49,1.29,0,1.78Z"/>
            <path class="st16" d="M638.55,289.16c-.49.49-1.29.49-1.78,0-.49-.49-.49-1.29,0-1.78.49-.49,1.29-.49,1.78,0,.49.49.49,1.29,0,1.78Z"/>
            <path class="st16" d="M514.56,386.25c-.49.49-1.29.49-1.78,0-.49-.49-.49-1.29,0-1.78.49-.49,1.29-.49,1.78,0s.49,1.29,0,1.78Z"/>
            <path class="st16" d="M477.51,376.5c-.49.49-1.29.49-1.78,0s-.49-1.29,0-1.78c.49-.49,1.29-.49,1.78,0s.49,1.29,0,1.78Z"/>
            <circle class="st16" cx="550.88" cy="435.76" r="1.8"/>
            <circle class="st16" cx="534.36" cy="381.28" r="1.8"/>
            <path class="st16" d="M286.05,366.87c-.7-.7-.7-1.84,0-2.55.7-.7,1.84-.7,2.55,0s.7,1.84,0,2.55c-.7.7-1.84.7-2.55,0Z"/>
            <path class="st16" d="M522.31,407.07c-.25.25-.64.25-.89,0-.25-.25-.25-.64,0-.89.25-.25.64-.25.89,0,.25.25.25.64,0,.89Z"/>
            <path class="st16" d="M470.88,412.35c-.25.25-.64.25-.89,0-.25-.25-.25-.64,0-.89.25-.25.64-.25.89,0,.25.25.25.64,0,.89Z"/>
            <path class="st16" d="M529.21,438.29c-.12.12-.32.12-.44,0-.12-.12-.12-.32,0-.44.12-.12.32-.12.44,0,.12.12.12.32,0,.44Z"/>
            <path class="st16" d="M553.17,414.78c-.12.12-.32.12-.44,0-.12-.12-.12-.32,0-.44.12-.12.32-.12.44,0,.12.12.12.32,0,.44Z"/>
            <path class="st16" d="M561.62,392.31c-.12.12-.32.12-.44,0-.12-.12-.12-.32,0-.44.12-.12.32-.12.44,0,.12.12.12.32,0,.44Z"/>
            <path class="st16" d="M520.46,404.33c-.12.12-.32.12-.44,0s-.12-.32,0-.44c.12-.12.32-.12.44,0,.12.12.12.32,0,.44Z"/>
            <path class="st16" d="M505.12,449.25c-.12.12-.32.12-.44,0s-.12-.32,0-.44c.12-.12.32-.12.44,0,.12.12.12.32,0,.44Z"/>
            <path class="st16" d="M536.62,408.31c-.12.12-.32.12-.44,0-.12-.12-.12-.32,0-.44.12-.12.32-.12.44,0s.12.32,0,.44Z"/>
            <path class="st16" d="M550.42,440.55c-.12.12-.32.12-.44,0-.12-.12-.12-.32,0-.44s.32-.12.44,0c.12.12.12.32,0,.44Z"/>
            <path class="st16" d="M314.9,314.55c.51.51.51,1.33,0,1.84s-1.33.51-1.84,0c-.51-.51-.51-1.33,0-1.84.51-.51,1.33-.51,1.84,0Z"/>
            <circle class="st16" cx="366.24" cy="276.88" r="1.87"/>
            <circle class="st16" cx="309.74" cy="294.01" r="1.87"/>
            <path class="st16" d="M336.49,306.51c.25.25.25.67,0,.92-.25.25-.67.25-.92,0-.25-.25-.25-.67,0-.92.25-.25.67-.25.92,0Z"/>
            <path class="st16" d="M368.86,299.35c.13.13.13.33,0,.46-.13.13-.33.13-.46,0s-.13-.33,0-.46.33-.13.46,0Z"/>
            <path class="st16" d="M415.54,278.39c.13.13.13.33,0,.46-.13.13-.33.13-.46,0-.13-.13-.13-.33,0-.46s.33-.13.46,0Z"/>
            <path class="st16" d="M344.48,274.51c.13.13.13.33,0,.46s-.33.13-.46,0c-.13-.13-.13-.33,0-.46.13-.13.33-.13.46,0Z"/>
            <path class="st16" d="M333.65,308.43c.13.13.13.33,0,.46s-.33.13-.46,0c-.13-.13-.13-.33,0-.46s.33-.13.46,0Z"/>
            <path class="st16" d="M337.78,291.67c.13.13.13.33,0,.46-.13.13-.33.13-.46,0s-.13-.33,0-.46c.13-.13.33-.13.46,0Z"/>
            <path class="st16" d="M371.2,277.36c.13.13.13.33,0,.46-.13.13-.33.13-.46,0-.13-.13-.13-.33,0-.46.13-.13.33-.13.46,0Z"/>
            <path class="st16" d="M759.46,459.08c-.72,0-1.3-.58-1.3-1.3s.58-1.3,1.3-1.3,1.3.58,1.3,1.3-.58,1.3-1.3,1.3Z"/>
            <path class="st16" d="M731.02,414.14c-.72,0-1.3-.58-1.3-1.3s.58-1.3,1.3-1.3,1.3.58,1.3,1.3-.58,1.3-1.3,1.3Z"/>
            <circle class="st16" cx="721.35" cy="477.07" r="1.87"/>
            <circle class="st16" cx="749.19" cy="425.01" r="1.87"/>
            <path class="st16" d="M721.44,435.09c-.36,0-.65-.29-.65-.65s.29-.65.65-.65.65.29.65.65-.29.65-.65.65Z"/>
            <path class="st16" d="M703.61,463.04c-.18,0-.33-.15-.33-.33s.15-.33.33-.33.33.15.33.33-.15.33-.33.33Z"/>
            <path class="st16" d="M738.42,463.37c-.18,0-.33-.15-.33-.33s.15-.33.33-.33.33.15.33.33-.15.33-.33.33Z"/>
            <circle class="st16" cx="761.09" cy="452.76" r=".33"/>
            <path class="st16" d="M722.09,431.72c-.18,0-.33-.15-.33-.33s.15-.33.33-.33.33.15.33.33-.15.33-.33.33Z"/>
            <circle class="st16" cx="731.02" cy="446.17" r=".33"/>
            <circle class="st16" cx="257.04" cy="404.99" r="2.39"/>
            <path class="st16" d="M241.08,439.14c-.33.33-.85.33-1.18,0-.33-.33-.33-.85,0-1.18.33-.33.85-.33,1.18,0,.33.33.33.85,0,1.18Z"/>
            <path class="st16" d="M238.63,435.51c-.16.16-.43.16-.59,0-.16-.16-.16-.43,0-.59.16-.16.43-.16.59,0,.16.16.16.43,0,.59Z"/>
            <path class="st16" d="M260.03,440.79c-.16.16-.43.16-.59,0-.16-.16-.16-.43,0-.59.16-.16.43-.16.59,0s.16.43,0,.59Z"/>
            <circle class="st16" cx="179.84" cy="325.64" r=".42"/>
          </g>
          <circle class="st6" cx="242.69" cy="194.25" r="87.75" transform="translate(-66.27 228.5) rotate(-45)"/>
          <circle class="st7" cx="422.28" cy="342.93" r="46.33"/>
          <circle class="st9" cx="787.89" cy="138.43" r="41.69" transform="translate(276.18 753.31) rotate(-60.2)"/>
          <circle class="st3" cx="468.97" cy="326.48" r="23.38" transform="translate(-93.5 427.24) rotate(-45)"/>
          <circle class="st4" cx="486.51" cy="70.88" r="151.47"/>
          <circle class="st8" cx="329.82" cy="213.36" r="14.3"/>
          <path class="st18" d="M636.74,289.03h0c-2.41,2.41-2.41,6.32,0,8.74l196.45,196.45c2.41,2.41,6.32,2.41,8.74,0h0c2.41-2.41,2.41-6.32,0-8.74l-196.45-196.45c-2.41-2.41-6.32-2.41-8.74,0Z"/>
          <path class="st27" d="M169.74,481.42h0c-2.41,2.41-2.41,6.32,0,8.74l196.45,196.45c2.41,2.41,6.32,2.41,8.74,0h0c2.41-2.41,2.41-6.32,0-8.74l-196.45-196.45c-2.41-2.41-6.32-2.41-8.74,0Z"/>
          <path class="st26" d="M806.47,35.56h0c-2.41,2.41-2.41,6.32,0,8.74l196.45,196.45c2.41,2.41,6.32,2.41,8.74,0h0c2.41-2.41,2.41-6.32,0-8.74l-196.45-196.45c-2.41-2.41-6.32-2.41-8.74,0Z"/>
          <path class="st25" d="M43.27,136.84h0c-3.18,3.18-3.18,8.32,0,11.5l258.53,258.53c3.18,3.18,8.32,3.18,11.5,0h0c3.18-3.18,3.18-8.32,0-11.5L54.77,136.84c-3.18-3.18-8.32-3.18-11.5,0Z"/>
          <path class="st22" d="M554.61,390.5h0c-3.18,3.18-3.18,8.32,0,11.5l258.53,258.53c3.18,3.18,8.32,3.18,11.5,0h0c3.18-3.18,3.18-8.32,0-11.5l-258.53-258.53c-3.18-3.18-8.32-3.18-11.5,0Z"/>
          <path class="st20" d="M415.91,191.86h0c1.02-1.02,1.02-2.69,0-3.71L241.81,14.04c-1.02-1.02-2.69-1.02-3.71,0h0c-1.02,1.03-1.02,2.69,0,3.71l174.11,174.11c1.02,1.02,2.69,1.02,3.71,0Z"/>
          <path class="st24" d="M330.29,466.31h0c1.39-1.39,1.39-3.63,0-5.02L94.91,225.92c-1.39-1.39-3.63-1.39-5.02,0h0c-1.39,1.39-1.39,3.63,0,5.02l235.37,235.37c1.39,1.39,3.63,1.39,5.02,0Z"/>
          <path class="st23" d="M284.09,221.31h0c1.39-1.39,1.39-3.63,0-5.02L48.71-19.08c-1.39-1.39-3.63-1.39-5.02,0h0c-1.39,1.39-1.39,3.63,0,5.02l235.37,235.37c1.39,1.39,3.63,1.39,5.02,0Z"/>
          <path class="st19" d="M744.82,192.65h0c1.46-1.46,1.46-3.82,0-5.28L497.01-60.44c-1.46-1.46-3.82-1.46-5.28,0h0c-1.46,1.46-1.46,3.82,0,5.28l247.81,247.81c1.46,1.46,3.82,1.46,5.28,0Z"/>
          <path class="st21" d="M855,424.13h0c1.46-1.46,1.46-3.82,0-5.28l-247.81-247.81c-1.46-1.46-3.82-1.46-5.28,0h0c-1.46,1.46-1.46,3.82,0,5.28l247.81,247.81c1.46,1.46,3.82,1.46,5.28,0Z"/>
          <path class="st17" d="M433.19,84.9h0c1.46-1.46,1.46-3.82,0-5.28l-247.81-247.81c-1.46-1.46-3.82-1.46-5.28,0h0c-1.46,1.46-1.46,3.82,0,5.28l247.81,247.81c1.46,1.46,3.82,1.46,5.28,0Z"/>
          <path class="st1" d="M679.59,371.51h0c18.13-18.13,18.13-47.54,0-65.67l-235.99-235.99c-18.13-18.13-47.54-18.13-65.67,0h0c-18.13,18.13-18.13,47.54,0,65.67l235.99,235.99c18.13,18.13,47.54,18.13,65.67,0Z"/>
          <path class="st2" d="M330.4,119.63h0c18.13-18.13,18.13-47.54,0-65.67L94.4-182.03c-18.13-18.13-47.54-18.13-65.67,0h0c-18.13,18.13-18.13,47.54,0,65.67l235.99,235.99c18.13,18.13,47.54,18.13,65.67,0Z"/>
          <path class="st5" d="M840.46,124.16h0c18.13-18.13,18.13-47.54,0-65.67l-235.99-235.99c-18.13-18.13-47.54-18.13-65.67,0h0c-18.13,18.13-18.13,47.54,0,65.67l235.99,235.99c18.13,18.13,47.54,18.13,65.67,0Z"/>
          <path class="st14" d="M123.22,247.07h0c18.13-18.13,18.13-47.54,0-65.67L-112.77-54.59c-18.13-18.13-47.54-18.13-65.67,0h0c-18.13,18.13-18.13,47.54,0,65.67L57.55,247.07c18.13,18.13,47.54,18.13,65.67,0Z"/>
          <path class="st11" d="M482.24,372.03h0c-18.13,18.13-18.13,47.54,0,65.67l235.99,235.99c18.13,18.13,47.54,18.13,65.67,0h0c18.13-18.13,18.13-47.54,0-65.67l-235.99-235.99c-18.13-18.13-47.54-18.13-65.67,0Z"/>
          <path class="st12" d="M48.67,303.25h0c-18.13,18.13-18.13,47.54,0,65.67l235.99,235.99c18.13,18.13,47.54,18.13,65.67,0h0c18.13-18.13,18.13-47.54,0-65.67l-235.99-235.99c-18.13-18.13-47.54-18.13-65.67,0Z"/>
          <path class="st13" d="M764.65,316.33h0c-18.13,18.13-18.13,47.54,0,65.67l235.99,235.99c18.13,18.13,47.54,18.13,65.67,0h0c18.13-18.13,18.13-47.54,0-65.67l-235.99-235.99c-18.13-18.13-47.54-18.13-65.67,0Z"/>
        </g>
        <path class="st10" d="M603.78,227.55c-8.59-4.55-11.85-15.21-7.3-23.79.96-1.81,2.19-3.39,3.62-4.7-3,1.59-5.57,4.07-7.28,7.29-4.55,8.59-1.29,19.24,7.3,23.79,6.77,3.59,14.83,2.32,20.17-2.6-4.99,2.65-11.15,2.85-16.52,0Z"/>
      </g>
    </g>
  </g>
</svg>